<svg width="20" height="20" viewBox="0 0 20 20" fill="none" xmlns="http://www.w3.org/2000/svg">
<path d="M7.74999 2.75C7.74999 2.55109 7.67097 2.36032 7.53032 2.21967C7.38967 2.07902 7.1989 2 6.99999 2C6.80108 2 6.61031 2.07902 6.46966 2.21967C6.32901 2.36032 6.24999 2.55109 6.24999 2.75V4.008C5.04615 4.03491 3.84468 4.12771 2.65099 4.286C2.55335 4.299 2.45923 4.33111 2.374 4.38048C2.28877 4.42986 2.2141 4.49554 2.15425 4.57377C2.0944 4.652 2.05055 4.74126 2.0252 4.83644C1.99984 4.93162 1.99349 5.03086 2.00649 5.1285C2.01949 5.22614 2.05159 5.32026 2.10097 5.40549C2.15034 5.49072 2.21602 5.56539 2.29426 5.62524C2.37249 5.68508 2.46175 5.72894 2.55693 5.75429C2.65211 5.77964 2.75135 5.786 2.84899 5.773C4.78803 5.51576 6.7468 5.43943 8.69999 5.545C8.28614 6.94302 7.71587 8.28987 6.99999 9.56C6.62609 8.8969 6.29152 8.21238 5.99799 7.51C5.91798 7.3317 5.77153 7.19166 5.58982 7.11972C5.40811 7.04777 5.2055 7.04959 5.02512 7.1248C4.84473 7.2 4.70083 7.34265 4.62404 7.52236C4.54725 7.70208 4.54364 7.90467 4.61399 8.087C5.03468 9.09442 5.53354 10.0674 6.10599 10.997C5.03712 12.5591 3.74775 13.9583 2.27799 15.151C2.19815 15.2119 2.13134 15.2882 2.08154 15.3754C2.03174 15.4626 1.99995 15.5589 1.98806 15.6586C1.97618 15.7583 1.98443 15.8594 2.01234 15.9558C2.04024 16.0523 2.08723 16.1421 2.15052 16.2201C2.21381 16.298 2.2921 16.3625 2.38077 16.4096C2.46943 16.4568 2.56665 16.4856 2.66667 16.4944C2.76669 16.5033 2.86747 16.492 2.96303 16.4612C3.05859 16.4303 3.14699 16.3806 3.22299 16.315C4.64999 15.157 5.91972 13.8177 6.99999 12.331C7.09499 12.463 7.19199 12.593 7.28999 12.722C7.41066 12.8803 7.58929 12.9842 7.78658 13.0109C7.98387 13.0375 8.18365 12.9847 8.34199 12.864C8.50032 12.7433 8.60423 12.5647 8.63087 12.3674C8.6575 12.1701 8.60466 11.9703 8.48399 11.812C8.27999 11.546 8.08399 11.274 7.89399 10.997C8.91667 9.33725 9.70196 7.5425 10.227 5.665C10.537 5.696 10.845 5.733 11.151 5.773C11.3482 5.79926 11.5477 5.7461 11.7057 5.62524C11.8637 5.50437 11.9672 5.32569 11.9935 5.1285C12.0197 4.93131 11.9666 4.73177 11.8457 4.57377C11.7249 4.41577 11.5462 4.31226 11.349 4.286C10.1553 4.1274 8.95385 4.0346 7.74999 4.008V2.75Z" fill="black"/>
<path fill-rule="evenodd" clip-rule="evenodd" d="M13 8C13.1394 8 13.276 8.03884 13.3945 8.11214C13.513 8.18544 13.6088 8.29032 13.671 8.415L17.921 16.915C17.9659 17.0032 17.9929 17.0994 18.0005 17.1981C18.008 17.2968 17.9959 17.396 17.9649 17.49C17.9339 17.5841 17.8847 17.671 17.8199 17.7459C17.7551 17.8207 17.6762 17.882 17.5877 17.9262C17.4991 17.9705 17.4027 17.9967 17.3039 18.0035C17.2052 18.0102 17.106 17.9974 17.0123 17.9657C16.9185 17.9339 16.832 17.884 16.7576 17.8186C16.6833 17.7533 16.6226 17.6739 16.579 17.585L15.787 16H10.214L9.42104 17.585C9.37752 17.6739 9.31683 17.7533 9.24247 17.8186C9.16811 17.884 9.08156 17.9339 8.9878 17.9657C8.89403 17.9974 8.79492 18.0102 8.69617 18.0035C8.59742 17.9967 8.50098 17.9705 8.41243 17.9262C8.32387 17.882 8.24494 17.8207 8.18018 17.7459C8.11543 17.671 8.06614 17.5841 8.03515 17.49C8.00416 17.396 7.99208 17.2968 7.99961 17.1981C8.00715 17.0994 8.03414 17.0032 8.07904 16.915L12.329 8.415C12.3913 8.29032 12.487 8.18544 12.6056 8.11214C12.7241 8.03884 12.8607 8 13 8ZM15.037 14.5L13 10.427L10.964 14.5H15.037Z" fill="black"/>
</svg>
