<svg width="62" height="80" viewBox="0 0 62 80" fill="none" xmlns="http://www.w3.org/2000/svg">
<mask id="mask0_40_146" style="mask-type:luminance" maskUnits="userSpaceOnUse" x="0" y="0" width="62" height="80">
<path d="M0 0H61.6898V79.3863H0V0Z" fill="white"/>
</mask>
<g mask="url(#mask0_40_146)">
<path d="M3.5403 36.7797H17.2744C17.3898 36.7797 17.5057 36.7741 17.6207 36.7625C17.7357 36.7513 17.8502 36.734 17.9639 36.7117C18.0772 36.6888 18.1892 36.6608 18.3003 36.6272C18.411 36.5932 18.5195 36.5544 18.6268 36.5101C18.7336 36.4657 18.8383 36.4162 18.9403 36.3615C19.0424 36.3072 19.1415 36.2474 19.2375 36.1832C19.334 36.119 19.4266 36.0501 19.5162 35.9764C19.6058 35.9032 19.6915 35.8253 19.7733 35.7434C19.8551 35.6616 19.9327 35.5759 20.0063 35.4867C20.0795 35.3972 20.1484 35.3041 20.2126 35.2081C20.2772 35.112 20.3367 35.0125 20.3914 34.9105C20.4456 34.8084 20.4952 34.7042 20.5395 34.5969C20.5839 34.4901 20.6231 34.3811 20.6567 34.2705C20.6903 34.1598 20.7183 34.0478 20.7411 33.9341C20.7639 33.8208 20.7807 33.7062 20.7923 33.5912C20.8035 33.4758 20.8096 33.3604 20.8096 33.2445V19.5113C20.8096 19.3954 20.8035 19.28 20.7923 19.165C20.7807 19.0496 20.7639 18.9354 20.7411 18.8217C20.7183 18.7085 20.6903 18.5961 20.6567 18.4854C20.6231 18.3747 20.5839 18.2657 20.5395 18.1589C20.4952 18.0521 20.4456 17.9474 20.3914 17.8453C20.3367 17.7433 20.2772 17.6442 20.2126 17.5482C20.1484 17.4517 20.0795 17.3591 20.0063 17.2695C19.9327 17.1799 19.8551 17.0942 19.7733 17.0124C19.6915 16.9305 19.6058 16.853 19.5162 16.7794C19.4266 16.7062 19.334 16.6372 19.2375 16.5726C19.1415 16.5085 19.0424 16.449 18.9403 16.3943C18.8383 16.3396 18.7336 16.2905 18.6268 16.2462C18.5195 16.2018 18.411 16.1626 18.3003 16.129C18.1892 16.0954 18.0772 16.0674 17.9639 16.0446C17.8502 16.0218 17.7357 16.005 17.6207 15.9933C17.5057 15.9821 17.3898 15.9761 17.2744 15.9761H3.5403C3.42444 15.9761 3.30901 15.9821 3.19402 15.9933C3.07859 16.005 2.96445 16.0218 2.85075 16.0446C2.73748 16.0674 2.62506 16.0954 2.51437 16.129C2.40368 16.1626 2.29472 16.2018 2.1879 16.2462C2.08109 16.2905 1.97643 16.3396 1.87436 16.3943C1.77228 16.449 1.67322 16.5085 1.57674 16.5726C1.4807 16.6372 1.38767 16.7062 1.29851 16.7794C1.20893 16.853 1.12322 16.9305 1.04139 17.0124C0.959554 17.0942 0.882028 17.1799 0.808379 17.2695C0.73516 17.3591 0.666248 17.4517 0.601644 17.5482C0.53747 17.6442 0.478033 17.7433 0.423335 17.8453C0.368636 17.9474 0.319106 18.0521 0.275175 18.1589C0.230813 18.2657 0.191619 18.3747 0.158025 18.4854C0.12443 18.5961 0.0960042 18.7085 0.0736079 18.8217C0.050781 18.9354 0.0339836 19.0496 0.0223549 19.165C0.0111567 19.28 0.00512695 19.3954 0.00512695 19.5113V33.245C0.00512695 33.3608 0.0111567 33.4762 0.0223549 33.5917C0.0339836 33.7067 0.050781 33.8212 0.0736079 33.9345C0.0964349 34.0482 0.12443 34.1602 0.158025 34.2709C0.191619 34.3816 0.230813 34.4905 0.275175 34.5974C0.319537 34.7042 0.369067 34.8088 0.423335 34.9109C0.478033 35.013 0.53747 35.112 0.602074 35.2085C0.666248 35.3046 0.73516 35.3972 0.80881 35.4867C0.882028 35.5763 0.959554 35.662 1.04139 35.7439C1.12322 35.8257 1.20893 35.9032 1.29851 35.9769C1.3881 36.0501 1.4807 36.119 1.57717 36.1832C1.67322 36.2478 1.77228 36.3072 1.87436 36.3615C1.97643 36.4162 2.08109 36.4657 2.1879 36.5101C2.29472 36.5544 2.40368 36.5932 2.51437 36.6272C2.62506 36.6608 2.73748 36.6888 2.85075 36.7117C2.96445 36.734 3.07859 36.7513 3.19402 36.7625C3.30901 36.7741 3.42444 36.7797 3.5403 36.7797ZM5.09339 23.3781C5.09339 23.2597 5.10115 23.1412 5.11665 23.0236C5.13173 22.9061 5.15498 22.7898 5.18556 22.6752C5.21614 22.5606 5.25404 22.4482 5.2997 22.3388C5.34492 22.229 5.39747 22.123 5.45647 22.0201C5.51591 21.9172 5.58181 21.819 5.65373 21.7246C5.72609 21.6303 5.80405 21.5416 5.88803 21.4576C5.97202 21.3736 6.06074 21.2957 6.15506 21.2233C6.24939 21.151 6.34759 21.0851 6.45052 21.0261C6.55346 20.9666 6.65941 20.9141 6.76924 20.8688C6.87864 20.8236 6.99105 20.7853 7.10561 20.7547C7.22018 20.7241 7.33647 20.7009 7.45405 20.6858C7.57163 20.6703 7.68964 20.6625 7.80851 20.6625C7.92696 20.6625 8.0454 20.6707 8.16298 20.6862C8.28056 20.7017 8.39685 20.725 8.51141 20.7556C8.62598 20.7866 8.73796 20.8245 8.84779 20.8701C8.95719 20.9158 9.06314 20.9683 9.16607 21.0278L14.359 24.0254C14.4619 24.0844 14.5606 24.1503 14.6549 24.2223C14.7492 24.2946 14.8388 24.3726 14.9228 24.4566C15.0068 24.5401 15.0852 24.6293 15.1579 24.7236C15.2303 24.8175 15.2962 24.9161 15.3556 25.0191C15.4151 25.1216 15.4676 25.2279 15.5133 25.3378C15.5589 25.4476 15.5973 25.5596 15.6278 25.6746C15.6588 25.7891 15.6821 25.9054 15.6976 26.0234C15.7131 26.141 15.7209 26.2595 15.7209 26.3783C15.7209 26.4972 15.7131 26.6152 15.6976 26.7332C15.6821 26.8508 15.6588 26.9671 15.6278 27.0821C15.5973 27.1967 15.5589 27.3091 15.5133 27.4185C15.4676 27.5283 15.4151 27.6347 15.3556 27.7376C15.2962 27.8401 15.2303 27.9388 15.1579 28.0331C15.0852 28.127 15.0068 28.2161 14.9228 28.3001C14.8388 28.3837 14.7492 28.4621 14.6549 28.534C14.5606 28.6063 14.4619 28.6718 14.359 28.7308L9.16134 31.728C8.95546 31.8491 8.73753 31.9404 8.50711 32.0033C8.27711 32.0657 8.04238 32.0976 7.80378 32.098C7.32226 32.0954 6.87304 31.974 6.45569 31.7332C6.35232 31.6746 6.25283 31.6092 6.15808 31.5372C6.06333 31.4653 5.97374 31.3874 5.88932 31.3034C5.80491 31.2194 5.72609 31.1307 5.65373 31.0363C5.58094 30.942 5.51462 30.8434 5.45518 30.7405C5.39574 30.6371 5.3432 30.5307 5.29754 30.4209C5.25232 30.3106 5.21442 30.1982 5.18384 30.0832C5.15326 29.9682 5.13043 29.8515 5.11536 29.7335C5.10028 29.6155 5.09296 29.4966 5.09382 29.3777L5.09339 23.3781ZM7.48032 29.3773V23.379C7.4786 23.3191 7.49238 23.2635 7.52167 23.2118C7.55139 23.1602 7.5923 23.1201 7.64442 23.0917C7.69395 23.0628 7.74692 23.0478 7.80378 23.0465C7.86364 23.0473 7.91791 23.0637 7.96787 23.0964L13.1655 26.0936C13.2181 26.1208 13.2599 26.1595 13.2904 26.2104C13.3206 26.2616 13.3352 26.3168 13.3339 26.3762C13.3357 26.4361 13.321 26.492 13.2904 26.5437C13.2603 26.5954 13.2185 26.635 13.1655 26.663L7.96787 29.6659C7.91834 29.696 7.8645 29.7111 7.80636 29.7111C7.74822 29.7111 7.69438 29.696 7.64442 29.6659C7.5923 29.637 7.55139 29.5969 7.52167 29.5453C7.49195 29.4932 7.47817 29.4376 7.48032 29.3777V29.3773ZM57.0584 31.1044C57.0584 30.9885 57.0528 30.8731 57.0412 30.7577C57.03 30.6427 57.0127 30.5281 56.9899 30.4148C56.9675 30.3011 56.9395 30.1892 56.9055 30.0785C56.8719 29.9678 56.8331 29.8588 56.7888 29.752C56.7444 29.6448 56.6949 29.5405 56.6402 29.4385C56.5855 29.3364 56.5261 29.2369 56.4619 29.1408C56.3977 29.0448 56.3288 28.9518 56.2552 28.8622C56.1819 28.773 56.104 28.6873 56.0221 28.6055C55.9403 28.5236 55.8546 28.4457 55.7654 28.3725C55.6759 28.2988 55.5828 28.2299 55.4868 28.1657C55.3903 28.1016 55.2913 28.0417 55.1892 27.9874C55.0871 27.9327 54.9824 27.8832 54.8756 27.8388C54.7688 27.7945 54.6598 27.7557 54.5492 27.7217C54.4385 27.6881 54.3265 27.6601 54.2128 27.6373C54.0991 27.6149 53.9849 27.5976 53.8695 27.5864C53.7545 27.5748 53.6391 27.5692 53.5232 27.5688H39.79C39.6741 27.5692 39.5587 27.5748 39.4437 27.5864C39.3283 27.5976 39.2142 27.6149 39.1004 27.6373C38.9872 27.6601 38.8748 27.6881 38.7641 27.7217C38.6534 27.7557 38.5444 27.7945 38.4376 27.8388C38.3308 27.8832 38.2261 27.9327 38.1241 27.9874C38.022 28.0417 37.9229 28.1016 37.8264 28.1657C37.7304 28.2299 37.6374 28.2988 37.5482 28.3725C37.4586 28.4457 37.3729 28.5236 37.2911 28.6055C37.2093 28.6873 37.1317 28.773 37.0581 28.8622C36.9849 28.9518 36.916 29.0448 36.8513 29.1408C36.7872 29.2369 36.7277 29.3364 36.673 29.4385C36.6183 29.5405 36.5688 29.6448 36.5244 29.752C36.4805 29.8588 36.4413 29.9678 36.4077 30.0785C36.3741 30.1892 36.3457 30.3011 36.3233 30.4148C36.3005 30.5281 36.2837 30.6427 36.2721 30.7577C36.2604 30.8731 36.2548 30.9885 36.2548 31.1044V42.7974L39.3882 39.6589C39.4752 39.5719 39.5665 39.4897 39.6612 39.4121C39.7564 39.3342 39.855 39.261 39.9571 39.1929C40.0596 39.1249 40.1647 39.062 40.2732 39.0043C40.3818 38.9465 40.4925 38.894 40.6062 38.8471C40.7194 38.8001 40.8353 38.7588 40.9529 38.7234C41.0705 38.6877 41.1893 38.658 41.3099 38.6339C41.4305 38.6102 41.5516 38.5921 41.6739 38.58C41.7962 38.568 41.9189 38.5619 42.0417 38.5619C42.1644 38.5619 42.2872 38.568 42.4095 38.58C42.5314 38.5921 42.6528 38.6102 42.7734 38.6339C42.894 38.658 43.0129 38.6877 43.1305 38.7234C43.2481 38.7588 43.3635 38.8001 43.4772 38.8471C43.5909 38.894 43.7016 38.9465 43.8101 39.0043C43.9182 39.062 44.0238 39.1249 44.1258 39.1929C44.2283 39.261 44.327 39.3342 44.4217 39.4121C44.5169 39.4897 44.6078 39.5719 44.6948 39.6589L45.3464 40.3149L48.5577 37.1036C48.6447 37.017 48.7356 36.9348 48.8303 36.8572C48.9255 36.7797 49.0242 36.7069 49.1258 36.6393C49.2279 36.5712 49.3334 36.5084 49.4415 36.4506C49.5496 36.3934 49.6603 36.3408 49.7736 36.2943C49.8873 36.2474 50.0023 36.2064 50.1199 36.1707C50.237 36.1354 50.3559 36.1057 50.476 36.082C50.5966 36.0579 50.7177 36.0402 50.8396 36.0281C50.9614 36.0161 51.0838 36.01 51.2065 36.01C51.3293 36.01 51.4516 36.0161 51.5735 36.0281C51.6954 36.0402 51.8164 36.0579 51.937 36.082C52.0571 36.1057 52.176 36.1354 52.2932 36.1707C52.4107 36.2064 52.5257 36.2474 52.6394 36.2943C52.7527 36.3408 52.8634 36.3934 52.9715 36.4506C53.0796 36.5084 53.1847 36.5712 53.2868 36.6393C53.3889 36.7069 53.4875 36.7797 53.5827 36.8572C53.6774 36.9348 53.7683 37.017 53.8553 37.1036L57.0575 40.3058L57.0584 31.1044ZM42.4913 33.8277C42.3798 33.9397 42.251 34.0262 42.105 34.087C41.959 34.1481 41.807 34.1783 41.6485 34.1783C41.5701 34.1783 41.4925 34.1692 41.4163 34.1511C41.3392 34.1374 41.2647 34.1145 41.1932 34.0827C41.1191 34.0547 41.0494 34.0181 40.9843 33.9737C40.9206 33.9302 40.8616 33.8815 40.8064 33.8277C40.6949 33.7157 40.6083 33.5869 40.5476 33.4409C40.4869 33.2949 40.4563 33.1429 40.4559 32.9848C40.4563 32.9069 40.464 32.8293 40.4787 32.7527C40.4963 32.6756 40.5192 32.5993 40.5467 32.5248C40.5795 32.4538 40.6174 32.3853 40.6609 32.3203C40.7483 32.191 40.8564 32.0816 40.9843 31.9921C41.0494 31.9477 41.1191 31.9111 41.1932 31.8827C41.2647 31.8508 41.3392 31.828 41.4163 31.8142C41.5124 31.7957 41.6093 31.7888 41.707 31.7939C41.8052 31.7991 41.9008 31.8159 41.9947 31.8443C42.0882 31.8732 42.1769 31.9124 42.2613 31.9628C42.3453 32.0132 42.422 32.073 42.4913 32.1424C42.546 32.1975 42.5964 32.2565 42.6416 32.3203C42.6834 32.3853 42.7196 32.4538 42.751 32.5248C42.7803 32.5989 42.8032 32.6747 42.8191 32.7527C42.8337 32.8293 42.8415 32.9069 42.8419 32.9848C42.8415 33.1429 42.8109 33.2949 42.7502 33.4409C42.6895 33.5869 42.6029 33.7157 42.4913 33.8277ZM42.3638 43.2932C42.3079 43.3483 42.2583 43.4086 42.2144 43.4732C42.1709 43.5382 42.1339 43.6067 42.1033 43.6791C42.0731 43.7514 42.0503 43.8259 42.0348 43.9026C42.0193 43.9793 42.0115 44.0568 42.0111 44.1352C42.0111 44.2136 42.0184 44.2911 42.0335 44.3677C42.0486 44.4448 42.071 44.5193 42.1011 44.5917C42.1308 44.6641 42.1674 44.733 42.2109 44.798C42.2545 44.863 42.304 44.9233 42.3591 44.9789C42.4702 45.0917 42.5986 45.1787 42.745 45.2395C42.891 45.3002 43.0435 45.3304 43.202 45.3295C43.3605 45.3304 43.513 45.3006 43.6598 45.2408C43.8067 45.1805 43.9363 45.0948 44.0492 44.9832L45.8934 43.139C45.9468 43.0907 45.9925 43.036 46.0304 42.9749C46.0885 42.9374 46.1419 42.893 46.1897 42.8426L50.2439 38.7932C50.3068 38.7299 50.3757 38.673 50.4498 38.6231C50.5243 38.5731 50.6027 38.5309 50.6854 38.4969C50.7681 38.4624 50.8533 38.4362 50.9412 38.4189C51.0291 38.4013 51.1178 38.3922 51.2069 38.3927C51.2965 38.3922 51.3853 38.4013 51.4731 38.4189C51.561 38.4362 51.6463 38.4624 51.7289 38.4969C51.8116 38.5309 51.89 38.5731 51.9645 38.6231C52.0386 38.673 52.1075 38.7299 52.1704 38.7932L57.0584 43.6812V44.8381C57.0584 44.9811 57.0498 45.1236 57.0321 45.2657C57.0149 45.4079 56.9891 45.5483 56.9546 45.687C56.9206 45.8261 56.8775 45.9622 56.8267 46.0961C56.7759 46.2297 56.7169 46.3597 56.6501 46.4863C56.5833 46.613 56.5088 46.7349 56.4274 46.8524C56.3456 46.97 56.2573 47.082 56.1621 47.1888C56.0665 47.2956 55.9653 47.3964 55.8576 47.4907C55.7499 47.5851 55.6371 47.6725 55.5191 47.7535C55.4101 47.8017 55.3098 47.8637 55.2185 47.94C54.9592 48.0829 54.6857 48.1911 54.3988 48.2643C54.1116 48.3379 53.82 48.3737 53.5241 48.3728H39.79C39.6065 48.3724 39.4243 48.3582 39.2434 48.3297C39.0625 48.3013 38.8847 48.2587 38.7102 48.2027C38.5358 48.1467 38.3665 48.0773 38.2029 47.9947C38.0392 47.9124 37.8829 47.8176 37.7338 47.7108C37.5848 47.604 37.4448 47.4864 37.3143 47.3577C37.1838 47.2293 37.0637 47.0915 36.9547 46.9442C36.8453 46.7969 36.748 46.6423 36.6631 46.4799C36.5779 46.3175 36.5055 46.1495 36.4465 45.976L41.0791 41.3434C41.1424 41.2809 41.2117 41.2245 41.2858 41.1754C41.3603 41.1259 41.4391 41.0841 41.5218 41.0501C41.6041 41.016 41.6894 40.9906 41.7772 40.9734C41.8647 40.9558 41.9534 40.9471 42.0425 40.9471C42.1317 40.9471 42.2204 40.9558 42.3079 40.9734C42.3957 40.9906 42.4806 41.016 42.5633 41.0501C42.646 41.0841 42.7248 41.1259 42.7989 41.1754C42.8734 41.2245 42.9423 41.2809 43.006 41.3434L43.662 41.9993L42.3638 43.2932ZM23.1909 33.245V19.5113C23.1909 19.3175 23.1814 19.1241 23.162 18.9316C23.1431 18.7386 23.1147 18.547 23.0768 18.357C23.0389 18.1671 22.9915 17.9793 22.9355 17.7937C22.8791 17.6085 22.8136 17.4263 22.7395 17.2471C22.6654 17.0679 22.5823 16.8931 22.491 16.7221C22.3997 16.5515 22.3002 16.3853 22.1925 16.2242C22.0849 16.0631 21.9699 15.9076 21.8467 15.7578C21.7239 15.6079 21.5939 15.4644 21.4569 15.3275C21.3199 15.1901 21.1765 15.06 21.0271 14.9373C20.8772 14.8141 20.7217 14.6987 20.5606 14.591C20.3995 14.4833 20.2337 14.3834 20.0627 14.2921C19.8922 14.2003 19.7173 14.1177 19.5381 14.0431C19.359 13.9691 19.1768 13.9036 18.9916 13.8472C18.8064 13.7908 18.6186 13.7434 18.4287 13.705C18.2383 13.6671 18.0471 13.6387 17.8541 13.6193C17.6612 13.6 17.4682 13.59 17.2744 13.59H13.7801V8.68397C13.7806 8.56983 13.7918 8.45656 13.8142 8.34458C13.8366 8.2326 13.8697 8.12406 13.9132 8.01854C13.9572 7.91302 14.011 7.81266 14.0743 7.71791C14.1376 7.62273 14.21 7.53486 14.2905 7.45432C14.3715 7.37335 14.4594 7.30143 14.5541 7.23768C14.6493 7.17437 14.7492 7.12096 14.8547 7.07703C14.9603 7.0331 15.0692 6.99994 15.1812 6.97754C15.2932 6.95514 15.406 6.94395 15.5202 6.94395H20.2212L21.6654 9.35801C21.7183 9.4463 21.7821 9.52684 21.8557 9.59877C21.9298 9.67113 22.0116 9.73272 22.1012 9.78354C22.1908 9.83479 22.2856 9.87356 22.3855 9.90026C22.4854 9.92696 22.5866 9.94031 22.69 9.94118H45.8801C45.9834 9.94031 46.0851 9.92696 46.185 9.90026C46.2845 9.87356 46.3792 9.83479 46.4693 9.78354C46.5588 9.73272 46.6407 9.67113 46.7148 9.59877C46.7884 9.52684 46.8522 9.4463 46.9051 9.35801L48.3493 6.94395H53.0499C53.1645 6.94395 53.2777 6.95514 53.3897 6.97754C53.5017 6.99994 53.6107 7.0331 53.7162 7.0766C53.8221 7.12053 53.9225 7.17394 54.0172 7.23768C54.1124 7.301 54.2003 7.37292 54.2813 7.45389C54.3622 7.53443 54.4346 7.6223 54.4983 7.71705C54.5621 7.81223 54.6159 7.91216 54.6598 8.01768C54.7042 8.1232 54.7374 8.23216 54.7602 8.34415C54.7826 8.45613 54.7942 8.5694 54.7947 8.68397V25.324C54.376 25.2318 53.9522 25.1862 53.5237 25.187H39.79C39.5962 25.1875 39.4028 25.1969 39.2098 25.2163C39.0173 25.2353 38.8257 25.2637 38.6357 25.3016C38.4458 25.3395 38.258 25.3869 38.0724 25.4429C37.8867 25.4993 37.7046 25.5648 37.5258 25.6388C37.3466 25.7129 37.1718 25.7956 37.0008 25.8869C36.8298 25.9787 36.664 26.0781 36.5025 26.1858C36.3414 26.2935 36.1859 26.4085 36.036 26.5317C35.8862 26.6544 35.7427 26.7845 35.6058 26.9215C35.4688 27.0584 35.3387 27.2018 35.2156 27.3513C35.0924 27.5012 34.9769 27.6567 34.8693 27.8177C34.7616 27.9788 34.6621 28.1446 34.5704 28.3156C34.4791 28.4862 34.3959 28.6615 34.3219 28.8402C34.2473 29.0194 34.1819 29.2016 34.1255 29.3868C34.069 29.5724 34.0217 29.7598 33.9838 29.9501C33.9454 30.1401 33.917 30.3313 33.8976 30.5242C33.8782 30.7172 33.8688 30.9106 33.8683 31.1044V44.8381C33.8683 45.0668 33.8821 45.2942 33.9097 45.5212C33.886 45.7399 33.9226 45.9475 34.0186 46.1452C34.0557 46.3076 34.0992 46.4678 34.1496 46.6263C34.2 46.7848 34.2568 46.9407 34.3201 47.0945C34.3839 47.2483 34.4536 47.399 34.5299 47.5467C34.6061 47.6949 34.6884 47.8392 34.7767 47.98C34.865 48.1208 34.9589 48.2578 35.0588 48.3909C35.1587 48.524 35.2638 48.6523 35.3745 48.7764C35.4852 48.9004 35.601 49.0197 35.7216 49.1343C35.8422 49.2488 35.9676 49.3578 36.0976 49.4616C36.2273 49.5654 36.3612 49.6636 36.4995 49.7562C36.6377 49.8488 36.7794 49.9354 36.925 50.0159C37.0706 50.0969 37.2192 50.171 37.3708 50.2395C37.5224 50.3075 37.6766 50.3691 37.8333 50.4242C37.9905 50.4794 38.1495 50.528 38.3101 50.5698C38.4712 50.6116 38.6336 50.6465 38.7977 50.6745C38.9613 50.7024 39.1263 50.7236 39.2921 50.7378C39.4579 50.752 39.6237 50.7593 39.79 50.7597H53.5237C53.9522 50.7584 54.376 50.7128 54.7947 50.6228V70.7019C54.7947 70.8165 54.783 70.9298 54.7606 71.0422C54.7382 71.1546 54.7051 71.2635 54.6611 71.3691C54.6172 71.475 54.5634 71.5754 54.4996 71.6706C54.4359 71.7657 54.364 71.8536 54.283 71.9346C54.202 72.0155 54.1137 72.0879 54.0185 72.1516C53.9234 72.2154 53.823 72.2692 53.717 72.3132C53.6115 72.3571 53.5026 72.3903 53.3901 72.4127C53.2777 72.4351 53.1645 72.4463 53.0499 72.4467H15.5202C15.406 72.4463 15.2928 72.4351 15.1803 72.4122C15.0684 72.3898 14.9594 72.3567 14.8539 72.3127C14.7484 72.2688 14.648 72.215 14.5532 72.1512C14.4581 72.0875 14.3702 72.0151 14.2892 71.9342C14.2087 71.8532 14.1368 71.7653 14.073 71.6701C14.0097 71.5749 13.9563 71.4742 13.9124 71.3686C13.8689 71.2631 13.8357 71.1542 13.8137 71.0417C13.7913 70.9298 13.7801 70.8165 13.7801 70.7019V69.0756H22.1387C22.3325 69.0756 22.5259 69.0657 22.7188 69.0463C22.9118 69.0274 23.103 68.9985 23.2934 68.9606C23.4833 68.9227 23.6711 68.8753 23.8563 68.8189C24.042 68.7625 24.2241 68.697 24.4033 68.6225C24.582 68.5484 24.7569 68.4653 24.9279 68.374C25.0989 68.2823 25.2647 68.1828 25.4258 68.0751C25.5869 67.9674 25.7423 67.852 25.8922 67.7288C26.0421 67.6056 26.1851 67.4756 26.3225 67.3386C26.4595 67.2016 26.5891 67.0582 26.7123 66.9083C26.835 66.7584 26.9505 66.603 27.0581 66.4419C27.1658 66.2804 27.2653 66.1146 27.3566 65.9436C27.4479 65.7726 27.531 65.5977 27.6051 65.4185C27.6792 65.2394 27.7447 65.0572 27.8011 64.872C27.8571 64.6864 27.9045 64.4986 27.9424 64.3086C27.9803 64.1183 28.0087 63.927 28.0276 63.7341C28.047 63.5411 28.0565 63.3478 28.0569 63.1539V49.4207C28.0565 49.2269 28.0466 49.0335 28.0276 48.8405C28.0083 48.648 27.9798 48.4568 27.9415 48.2669C27.9036 48.0765 27.8566 47.8891 27.8002 47.7039C27.7438 47.5183 27.6783 47.3361 27.6043 47.1574C27.5297 46.9782 27.4471 46.8038 27.3557 46.6328C27.264 46.4618 27.1645 46.296 27.0568 46.1349C26.9492 45.9738 26.8342 45.8188 26.711 45.6689C26.5882 45.519 26.4582 45.3756 26.3212 45.2386C26.1842 45.1017 26.0408 44.972 25.8914 44.8488C25.7415 44.7261 25.586 44.6107 25.4249 44.503C25.2638 44.3953 25.098 44.2958 24.9275 44.2045C24.7565 44.1132 24.5816 44.0301 24.4029 43.956C24.2237 43.8815 24.0415 43.8164 23.8563 43.76C23.6711 43.7036 23.4833 43.6562 23.2934 43.6183C23.1035 43.5804 22.9122 43.5516 22.7193 43.5326C22.5263 43.5132 22.3334 43.5038 22.1396 43.5033H13.7801V39.1666H17.2744C17.4682 39.1666 17.6612 39.1567 17.8541 39.1373C18.0471 39.1184 18.2383 39.0895 18.4287 39.0516C18.6186 39.0133 18.8064 38.9664 18.9916 38.9095C19.1772 38.8531 19.3594 38.7876 19.5381 38.7135C19.7173 38.639 19.8922 38.5563 20.0627 38.4646C20.2337 38.3733 20.3995 38.2734 20.5606 38.1657C20.7217 38.058 20.8772 37.9426 21.0271 37.8194C21.1765 37.6967 21.3199 37.5666 21.4569 37.4292C21.5939 37.2922 21.7239 37.1488 21.8467 36.9989C21.9699 36.849 22.0849 36.6936 22.1925 36.5325C22.3002 36.3714 22.3997 36.2052 22.491 36.0342C22.5827 35.8636 22.6654 35.6883 22.7395 35.5096C22.8136 35.3304 22.8791 35.1482 22.9355 34.9626C22.9915 34.7774 23.0389 34.5896 23.0768 34.3997C23.1147 34.2093 23.1431 34.0181 23.162 33.8251C23.1814 33.6322 23.1909 33.4388 23.1909 33.245ZM8.40072 43.5033C7.87053 43.5025 7.34982 43.5722 6.83815 43.7122V39.1662H11.398V43.5025L8.40072 43.5033ZM9.26169 61.5461C9.26169 61.4755 9.26901 61.4057 9.28279 61.3364C9.29701 61.267 9.31725 61.1999 9.34481 61.1344C9.37195 61.0694 9.40511 61.0073 9.44474 60.9488C9.48393 60.8902 9.52872 60.8359 9.57868 60.786C9.62908 60.736 9.68334 60.6916 9.74235 60.6524C9.80135 60.6132 9.86337 60.5805 9.92884 60.5534C9.99388 60.5267 10.0615 60.5064 10.1308 60.4927C10.2002 60.4789 10.27 60.4724 10.3406 60.4724C10.4112 60.4724 10.4814 60.4797 10.5508 60.4935C10.6201 60.5077 10.6873 60.528 10.7523 60.5551C10.8178 60.5827 10.8798 60.6158 10.9384 60.655C10.997 60.6946 11.0512 60.7394 11.1012 60.7894C11.1512 60.8394 11.1955 60.8941 11.2347 60.9526C11.2739 61.0116 11.3066 61.0737 11.3338 61.1391C11.3605 61.2046 11.3812 61.2718 11.3945 61.3411C11.4083 61.4105 11.4152 61.4802 11.4147 61.5513C11.4147 61.6219 11.4079 61.6917 11.3936 61.7611C11.3799 61.8304 11.3592 61.8976 11.3321 61.9631C11.3049 62.0281 11.2718 62.0901 11.2326 62.1487C11.1929 62.2073 11.1481 62.262 11.0982 62.3115C11.0482 62.3615 10.994 62.4062 10.935 62.4454C10.8759 62.4846 10.8139 62.5174 10.7489 62.5445C10.6834 62.5712 10.6158 62.5919 10.5465 62.6052C10.4775 62.619 10.4073 62.6259 10.3367 62.6259C10.2661 62.6255 10.1959 62.6186 10.1265 62.6048C10.0572 62.5906 9.98957 62.5703 9.92453 62.5432C9.85907 62.5156 9.79705 62.4825 9.73847 62.4433C9.67947 62.4037 9.6252 62.3589 9.57524 62.3089C9.52528 62.2585 9.48091 62.2042 9.44172 62.1452C9.40253 62.0862 9.36936 62.0242 9.34266 61.9587C9.31553 61.8933 9.29528 61.8257 9.28193 61.7563C9.26815 61.687 9.26126 61.6168 9.26169 61.5461ZM4.86598 49.4207V63.1539C4.86598 63.2698 4.87158 63.3852 4.88321 63.5006C4.89441 63.6156 4.91164 63.7302 4.93447 63.8435C4.95686 63.9572 4.98529 64.0692 5.01888 64.1799C5.05248 64.2906 5.09124 64.3995 5.1356 64.5063C5.17996 64.6136 5.22949 64.7178 5.28419 64.8199C5.33889 64.922 5.39833 65.0214 5.4625 65.1175C5.52711 65.2135 5.59559 65.3066 5.66924 65.3961C5.74289 65.4853 5.82041 65.571 5.90224 65.6528C5.98408 65.7347 6.06979 65.8126 6.15937 65.8859C6.24853 65.9595 6.34156 66.0284 6.4376 66.0926C6.53408 66.1568 6.63314 66.2166 6.73521 66.2709C6.83729 66.3256 6.94195 66.3751 7.04876 66.4195C7.15558 66.4639 7.26454 66.5026 7.37523 66.5366C7.48592 66.5702 7.5979 66.5982 7.71161 66.6211C7.82531 66.6435 7.93945 66.6607 8.05487 66.6719C8.16987 66.6835 8.2853 66.6891 8.40115 66.6891H22.1396C22.255 66.6891 22.3704 66.6835 22.4854 66.6719C22.6008 66.6607 22.715 66.6435 22.8282 66.6206C22.942 66.5982 23.0539 66.5698 23.1646 66.5362C23.2753 66.5026 23.3838 66.4634 23.4911 66.4191C23.5979 66.3747 23.7021 66.3252 23.8042 66.2705C23.9063 66.2158 24.0053 66.1563 24.1014 66.0922C24.1974 66.028 24.29 65.9591 24.3796 65.8854C24.4688 65.8118 24.5545 65.7342 24.6363 65.6524C24.7181 65.5706 24.7957 65.4849 24.8689 65.3953C24.9421 65.3061 25.011 65.2131 25.0752 65.1171C25.1394 65.0206 25.1988 64.9215 25.2531 64.8194C25.3078 64.7174 25.3569 64.6127 25.4012 64.5059C25.4456 64.3991 25.4844 64.2901 25.518 64.1794C25.5515 64.0687 25.5795 63.9568 25.6019 63.8431C25.6243 63.7298 25.6416 63.6156 25.6528 63.5002C25.664 63.3852 25.6696 63.2698 25.6696 63.1539V49.4207C25.6696 49.3048 25.664 49.1894 25.6528 49.0744C25.6416 48.959 25.6243 48.8448 25.6019 48.7311C25.5795 48.6179 25.5515 48.5059 25.518 48.3952C25.4844 48.2845 25.4456 48.1755 25.4012 48.0687C25.3569 47.9615 25.3078 47.8573 25.2531 47.7552C25.1988 47.6531 25.1394 47.554 25.0752 47.4576C25.011 47.3615 24.9421 47.2685 24.8689 47.1793C24.7957 47.0898 24.7181 47.004 24.6363 46.9222C24.5545 46.8404 24.4688 46.7624 24.3796 46.6892C24.29 46.6156 24.1974 46.5466 24.1014 46.4825C24.0053 46.4179 23.9063 46.3584 23.8042 46.3042C23.7021 46.2495 23.5979 46.1999 23.4911 46.1556C23.3838 46.1112 23.2753 46.072 23.1646 46.0384C23.0539 46.0048 22.942 45.9764 22.8282 45.954C22.715 45.9312 22.6008 45.9139 22.4854 45.9028C22.3704 45.8911 22.255 45.8855 22.1396 45.8851H8.40072C8.28487 45.8855 8.16944 45.8911 8.05444 45.9028C7.93902 45.9139 7.82488 45.9312 7.71118 45.9536C7.5979 45.9764 7.48549 46.0044 7.3748 46.0384C7.26411 46.072 7.15515 46.1108 7.04833 46.1551C6.94152 46.1995 6.83686 46.249 6.73478 46.3037C6.63271 46.3584 6.53365 46.4179 6.4376 46.482C6.34113 46.5462 6.24853 46.6151 6.15894 46.6888C6.06936 46.762 5.98365 46.84 5.90181 46.9218C5.81998 47.0036 5.74246 47.0893 5.66924 47.1785C5.59559 47.2681 5.52668 47.3611 5.4625 47.4571C5.39833 47.5536 5.33889 47.6527 5.28419 47.7548C5.22949 47.8568 5.17996 47.9611 5.1356 48.0683C5.09124 48.1751 5.05248 48.2841 5.01888 48.3948C4.98529 48.5055 4.95686 48.6174 4.93447 48.7311C4.91164 48.8444 4.89441 48.959 4.88321 49.074C4.87158 49.1894 4.86598 49.3048 4.86598 49.4207ZM10.3367 58.0842C10.7054 58.0855 11.0655 58.1432 11.416 58.2573V50.7369C11.416 50.6719 11.4208 50.6068 11.4311 50.5422C11.4415 50.4781 11.4574 50.4147 11.4781 50.3532C11.4987 50.2911 11.5246 50.2313 11.5552 50.1736C11.5862 50.1163 11.6211 50.0616 11.6611 50.0095C11.7007 49.9578 11.7442 49.9095 11.792 49.8652C11.8398 49.8204 11.8907 49.7799 11.9449 49.7441C11.9996 49.708 12.0565 49.6765 12.1159 49.6494C12.1754 49.6227 12.237 49.6012 12.2998 49.5844L19.6747 47.6079C19.719 47.5963 19.7634 47.5868 19.8086 47.5803C19.8534 47.5734 19.8986 47.5691 19.9443 47.5678C19.9899 47.5661 20.0356 47.5674 20.0808 47.5708C20.126 47.5747 20.1713 47.5807 20.2161 47.5898C20.2609 47.5988 20.3048 47.61 20.3483 47.6243C20.3914 47.638 20.434 47.6544 20.4753 47.6734C20.5171 47.6919 20.5572 47.7134 20.5964 47.7367C20.6356 47.7599 20.673 47.7858 20.7092 47.8133C20.7454 47.8413 20.7798 47.871 20.8126 47.9029C20.8453 47.9344 20.8759 47.9679 20.9047 48.0033C20.9336 48.0386 20.9603 48.0752 20.9849 48.114C21.0094 48.1523 21.0318 48.1919 21.052 48.2328C21.0719 48.2737 21.0895 48.3155 21.105 48.3586C21.1201 48.4012 21.133 48.4452 21.1434 48.4895C21.1533 48.5339 21.161 48.5787 21.1662 48.6239C21.1714 48.6696 21.1735 48.7148 21.1735 48.7604V59.5748C21.1744 59.6145 21.1726 59.6541 21.1688 59.6933C21.1649 59.8057 21.1554 59.9177 21.1408 60.0292C21.1257 60.1408 21.1059 60.2515 21.08 60.3609C21.0546 60.4707 21.0236 60.5788 20.9874 60.6852C20.9513 60.7916 20.9099 60.8962 20.8638 60.9987C20.8173 61.1012 20.7661 61.2011 20.7101 61.2989C20.6541 61.3963 20.5934 61.491 20.5279 61.5827C20.4629 61.6741 20.3931 61.7624 20.319 61.8472C20.2453 61.932 20.1674 62.013 20.0856 62.0901C20.0037 62.1676 19.9185 62.2404 19.8293 62.3093C19.7406 62.3783 19.6484 62.4429 19.5532 62.5027C19.458 62.5626 19.3598 62.6177 19.2595 62.6681C19.1587 62.7185 19.0558 62.7637 18.9507 62.8042C18.846 62.8443 18.7392 62.8796 18.6307 62.9093C18.5221 62.9394 18.4123 62.964 18.3016 62.9829C18.1909 63.0023 18.0794 63.0161 17.967 63.0247C17.855 63.0329 17.7426 63.0359 17.6302 63.0329C17.5177 63.0303 17.4053 63.0226 17.2938 63.0088C17.1822 62.9954 17.0715 62.9765 16.9613 62.9519C16.8514 62.9278 16.7433 62.8981 16.6361 62.8632C16.5293 62.8283 16.4242 62.7883 16.3213 62.743C16.2183 62.6978 16.1175 62.6479 16.0193 62.5927C15.9211 62.538 15.826 62.4782 15.7338 62.414C15.6412 62.3498 15.5525 62.2809 15.4668 62.2081C15.381 62.1353 15.2992 62.0582 15.2208 61.9773C15.1429 61.8963 15.0688 61.8119 14.999 61.7236C14.9288 61.6357 14.8633 61.544 14.8026 61.4497C14.7415 61.3549 14.6855 61.258 14.6338 61.1576C14.5821 61.0577 14.5356 60.9557 14.4942 60.851C14.4529 60.7463 14.4163 60.6399 14.3853 60.5318C14.3538 60.4237 14.328 60.3143 14.3077 60.2037C14.2871 60.093 14.272 59.9818 14.2625 59.8699C14.253 59.7575 14.2487 59.6455 14.25 59.5326C14.2513 59.4202 14.2582 59.3082 14.2703 59.1963C14.2828 59.0843 14.3004 58.9736 14.3237 58.8633C14.3465 58.7531 14.3749 58.6445 14.4085 58.5373C14.4426 58.43 14.4813 58.3245 14.5253 58.2207C14.5692 58.1174 14.6183 58.0161 14.6721 57.9175C14.726 57.8184 14.7841 57.7224 14.8474 57.6294C14.9107 57.5363 14.9783 57.4468 15.0503 57.3602C15.1222 57.2736 15.198 57.1909 15.2781 57.1117C15.3582 57.0329 15.4418 56.9579 15.5292 56.8868C15.6166 56.8158 15.7071 56.7495 15.801 56.6874C15.8949 56.6254 15.9918 56.5681 16.0908 56.5152C16.1903 56.4626 16.2924 56.4148 16.3962 56.3722C16.5004 56.3295 16.6064 56.2921 16.7141 56.2598C16.8217 56.227 16.9307 56.1999 17.0414 56.1783C17.1516 56.1564 17.2628 56.1404 17.3747 56.1292C17.4867 56.1185 17.5991 56.1129 17.7116 56.1129C18.0807 56.112 18.4407 56.1697 18.7909 56.286V54.4413L13.7987 55.7752V61.5466C13.7995 61.5875 13.7978 61.6284 13.7939 61.6693C13.79 61.7817 13.7806 61.8937 13.7655 62.0053C13.7509 62.1168 13.7302 62.2271 13.7048 62.3369C13.6789 62.4463 13.6479 62.5544 13.6117 62.6608C13.5756 62.7672 13.5342 62.8718 13.4877 62.9743C13.4412 63.0764 13.3899 63.1763 13.3335 63.2741C13.2775 63.3714 13.2168 63.4658 13.1513 63.5575C13.0859 63.6488 13.0161 63.7371 12.942 63.8219C12.8684 63.9064 12.7904 63.9873 12.7081 64.0644C12.6263 64.1415 12.541 64.2147 12.4519 64.2832C12.3631 64.3521 12.271 64.4163 12.1758 64.4762C12.0802 64.536 11.9824 64.5912 11.8816 64.6416C11.7813 64.6915 11.6783 64.7368 11.5732 64.7772C11.4682 64.8173 11.3613 64.8522 11.2528 64.8823C11.1443 64.912 11.0349 64.9366 10.9242 64.9555C10.8131 64.9745 10.7015 64.9883 10.5895 64.9965C10.4771 65.0046 10.3651 65.0077 10.2523 65.0051C10.1399 65.0021 10.0279 64.9939 9.91635 64.9805C9.8048 64.9667 9.69411 64.9478 9.58428 64.9232C9.47445 64.8987 9.36592 64.869 9.2591 64.8341C9.15229 64.7992 9.0472 64.7591 8.94426 64.7139C8.84133 64.6687 8.74054 64.6183 8.64278 64.5636C8.54458 64.5085 8.44939 64.4486 8.35722 64.3844C8.26462 64.3203 8.1759 64.2514 8.09019 64.1786C8.00448 64.1053 7.92265 64.0287 7.84469 63.9477C7.76674 63.8667 7.69266 63.7819 7.62288 63.694C7.55311 63.6057 7.48764 63.5144 7.42649 63.4197C7.36576 63.3254 7.30933 63.228 7.25808 63.1277C7.20683 63.0277 7.16031 62.9257 7.11854 62.821C7.07719 62.7163 7.04101 62.61 7.01 62.5019C6.97899 62.3938 6.95315 62.2844 6.93247 62.1741C6.91223 62.0634 6.89716 61.9519 6.88768 61.8399C6.87821 61.7279 6.8739 61.6155 6.87519 61.5031C6.87648 61.3907 6.88337 61.2782 6.89586 61.1667C6.90792 61.0547 6.92558 60.944 6.94884 60.8338C6.9721 60.7235 7.00052 60.615 7.03412 60.5077C7.06771 60.4005 7.10691 60.295 7.15084 60.1916C7.19477 60.0878 7.24387 59.9866 7.29771 59.888C7.35154 59.7893 7.41012 59.6933 7.473 59.6002C7.53631 59.5072 7.60393 59.4176 7.67586 59.3311C7.74779 59.2445 7.82402 59.1618 7.90413 59.083C7.98381 59.0037 8.06779 58.9288 8.15523 58.8582C8.24223 58.7871 8.3331 58.7208 8.427 58.6587C8.52046 58.5967 8.61736 58.5394 8.71686 58.4865C8.81592 58.4339 8.91799 58.3865 9.02179 58.3435C9.12602 58.3008 9.23197 58.2634 9.33965 58.2311C9.44732 58.1988 9.55629 58.1716 9.66655 58.1497C9.77724 58.1281 9.88836 58.1118 10.0003 58.101C10.1123 58.0898 10.2243 58.0846 10.3367 58.0846V58.0842ZM18.7909 51.967L13.7987 53.306V51.6521L18.7909 50.3131V51.967ZM18.7909 59.574C18.7905 59.6446 18.7836 59.7144 18.7698 59.7837C18.7556 59.8526 18.7349 59.9198 18.7078 59.9853C18.6806 60.0503 18.6475 60.1123 18.6083 60.1709C18.5686 60.2295 18.5239 60.2838 18.4739 60.3333C18.4239 60.3833 18.3697 60.4276 18.3107 60.4668C18.2521 60.506 18.1901 60.5392 18.1246 60.5659C18.0596 60.593 17.9919 60.6132 17.923 60.627C17.8537 60.6404 17.7835 60.6473 17.7128 60.6473C17.6426 60.6473 17.5724 60.6404 17.5031 60.6266C17.4342 60.6124 17.367 60.5921 17.3015 60.565C17.2365 60.5379 17.1745 60.5047 17.1159 60.4655C17.0569 60.4263 17.0026 60.382 16.9527 60.332C16.9027 60.282 16.8583 60.2278 16.8191 60.1688C16.78 60.1102 16.7468 60.0482 16.7197 59.9831C16.6925 59.9177 16.6723 59.8505 16.6585 59.7811C16.6447 59.7122 16.6378 59.642 16.6374 59.5714C16.6374 59.5008 16.6443 59.431 16.6581 59.3616C16.6718 59.2923 16.6921 59.2251 16.7192 59.1601C16.7459 59.0946 16.7791 59.0326 16.8183 58.974C16.8575 58.915 16.9018 58.8607 16.9518 58.8108C17.0013 58.7608 17.0556 58.716 17.1142 58.6768C17.1728 58.6372 17.2348 58.604 17.2998 58.5769C17.3653 58.5498 17.4325 58.5291 17.5018 58.5153C17.5707 58.5011 17.6409 58.4942 17.7111 58.4938C17.7822 58.4938 17.8524 58.5007 17.9222 58.5145C17.9915 58.5282 18.0591 58.5485 18.1246 58.5756C18.1905 58.6027 18.2525 58.6359 18.3115 58.6755C18.3705 58.7147 18.4252 58.7595 18.4752 58.8099C18.5256 58.8599 18.5704 58.9146 18.6096 58.9736C18.6488 59.0326 18.6823 59.095 18.7091 59.1605C18.7362 59.226 18.7569 59.2936 18.7706 59.3629C18.784 59.4327 18.7909 59.5029 18.7909 59.574ZM11.398 13.59H6.83815V8.68397C6.83858 8.54184 6.84203 8.39971 6.84935 8.25801C6.85624 8.11631 6.86701 7.97461 6.88079 7.83334C6.895 7.69207 6.91266 7.5508 6.93334 7.41039C6.95444 7.26999 6.97899 7.13001 7.00655 6.99089C7.03455 6.85135 7.06556 6.71309 7.10045 6.57527C7.1349 6.43745 7.1728 6.30048 7.21415 6.16481C7.2555 6.02871 7.30029 5.8939 7.3481 5.76039C7.39591 5.62644 7.44716 5.49422 7.50186 5.36285C7.55613 5.23192 7.61384 5.10185 7.67457 4.9735C7.7353 4.84515 7.79947 4.71853 7.86623 4.5932C7.93342 4.46786 8.00319 4.34425 8.07641 4.22236C8.14963 4.10091 8.22543 3.98074 8.30425 3.86273C8.3835 3.74472 8.46533 3.62843 8.54975 3.5143C8.63459 3.40059 8.72202 3.28861 8.81204 3.17878C8.90206 3.06895 8.99466 2.96128 9.09027 2.85619C9.18546 2.7511 9.28366 2.64816 9.38401 2.54781C9.48436 2.44703 9.5873 2.34926 9.69239 2.25407C9.79791 2.15846 9.90515 2.06586 10.015 1.97541C10.1248 1.8854 10.2368 1.79796 10.3509 1.71355C10.4651 1.6287 10.5809 1.54687 10.6989 1.46805C10.8174 1.38923 10.9371 1.313 11.059 1.24021C11.1809 1.16699 11.3045 1.09679 11.4294 1.03003C11.5547 0.962841 11.6818 0.899097 11.8101 0.838369C11.9385 0.77721 12.0681 0.719927 12.1995 0.665228C12.3304 0.61096 12.4631 0.559707 12.5966 0.5119C12.7305 0.463662 12.8653 0.4193 13.001 0.377953C13.1371 0.336606 13.2736 0.298704 13.4115 0.263818C13.5493 0.229362 13.688 0.197921 13.8271 0.170356C13.9666 0.142361 14.1062 0.118242 14.247 0.0971374C14.3874 0.0760332 14.5283 0.0588053 14.6695 0.0445922C14.8108 0.0303792 14.9525 0.0200424 15.0946 0.0127206C15.2363 0.00582941 15.378 0.00195312 15.5202 0.00195312H53.0499C53.192 0.00195312 53.3342 0.00582941 53.4759 0.0127206C53.618 0.0200424 53.7593 0.0303792 53.9005 0.0445922C54.0422 0.0588053 54.1831 0.0760332 54.3235 0.0971374C54.4639 0.118242 54.6039 0.142361 54.743 0.170356C54.8825 0.197921 55.0208 0.229362 55.1586 0.263818C55.2964 0.298704 55.4334 0.336606 55.569 0.377953C55.7052 0.4193 55.84 0.463662 55.9735 0.5119C56.1074 0.559707 56.2396 0.61096 56.371 0.665228C56.5024 0.719927 56.632 0.77721 56.7604 0.838369C56.8887 0.899097 57.0158 0.962841 57.1407 1.03003C57.266 1.09679 57.3896 1.16699 57.5115 1.24021C57.6334 1.313 57.7531 1.38923 57.8711 1.46805C57.9891 1.54687 58.1054 1.6287 58.2196 1.71355C58.3337 1.79796 58.4457 1.8854 58.5551 1.97541C58.6649 2.06586 58.7726 2.15846 58.8777 2.25407C58.9832 2.34926 59.0857 2.44703 59.1865 2.54781C59.2868 2.64816 59.3846 2.7511 59.4802 2.85619C59.5754 2.96128 59.6684 3.06895 59.7584 3.17878C59.8485 3.28861 59.9359 3.40059 60.0207 3.5143C60.1052 3.62843 60.187 3.74472 60.2658 3.86273C60.3451 3.98074 60.4209 4.10091 60.4941 4.22236C60.5669 4.34425 60.6371 4.46786 60.7043 4.5932C60.771 4.71853 60.8352 4.84515 60.8959 4.9735C60.9567 5.10185 61.0144 5.23192 61.0686 5.36285C61.1229 5.49422 61.1742 5.62644 61.2224 5.76039C61.2702 5.8939 61.3146 6.02871 61.3559 6.16481C61.3973 6.30048 61.4356 6.43745 61.47 6.57527C61.5045 6.71309 61.5359 6.85135 61.5635 6.99089C61.5915 7.13001 61.6161 7.26999 61.6367 7.41039C61.6578 7.5508 61.6755 7.69207 61.6893 7.83334C61.7035 7.97461 61.7142 8.11631 61.7211 8.25801C61.7285 8.39971 61.7319 8.54184 61.7319 8.68397V70.7019C61.7319 70.8441 61.7285 70.9862 61.7211 71.1279C61.7142 71.2696 61.7035 71.4113 61.6893 71.5526C61.6755 71.6938 61.6578 71.8351 61.6367 71.9755C61.6161 72.1159 61.5915 72.2559 61.5635 72.395C61.5359 72.5345 61.5045 72.6728 61.47 72.8106C61.4356 72.9484 61.3973 73.0854 61.3559 73.2211C61.315 73.3572 61.2702 73.492 61.2224 73.6255C61.1742 73.7594 61.1229 73.8917 61.0686 74.023C61.0144 74.154 60.9567 74.284 60.8959 74.4124C60.8352 74.5407 60.771 74.6674 60.7043 74.7927C60.6371 74.918 60.5669 75.0416 60.4941 75.1635C60.4209 75.285 60.3451 75.4051 60.2658 75.5232C60.187 75.6412 60.1052 75.7575 60.0207 75.8716C59.9359 75.9853 59.8485 76.0973 59.7584 76.2071C59.6684 76.3169 59.5754 76.4246 59.4802 76.5297C59.3846 76.6352 59.2868 76.7377 59.1865 76.8385C59.0861 76.9389 58.9832 77.0366 58.8777 77.1322C58.7726 77.2274 58.6649 77.32 58.5555 77.4105C58.4457 77.5005 58.3337 77.5879 58.2196 77.6723C58.1054 77.7572 57.9891 77.839 57.8711 77.9178C57.7531 77.9967 57.6334 78.0729 57.5115 78.1461C57.3896 78.2189 57.266 78.2891 57.1407 78.3559C57.0158 78.423 56.8887 78.4868 56.7604 78.5475C56.632 78.6087 56.5024 78.666 56.371 78.7207C56.2396 78.7749 56.1074 78.8262 55.9735 78.874C55.84 78.9222 55.7052 78.9666 55.569 79.0079C55.4334 79.0493 55.2964 79.0872 55.1586 79.1221C55.0212 79.1565 54.8825 79.188 54.743 79.2155C54.6039 79.2435 54.4639 79.2676 54.3235 79.2887C54.1831 79.3099 54.0422 79.3271 53.9005 79.3413C53.7593 79.3555 53.618 79.3658 53.4759 79.3732C53.3342 79.3801 53.192 79.3839 53.0499 79.3839H15.5202C15.378 79.3839 15.2363 79.3801 15.0942 79.3732C14.9525 79.3658 14.8108 79.3555 14.6695 79.3413C14.5283 79.3271 14.3874 79.3099 14.247 79.2887C14.1062 79.2676 13.9666 79.2435 13.8271 79.2155C13.688 79.188 13.5493 79.1565 13.4115 79.1221C13.2736 79.0872 13.1371 79.0493 13.001 79.0079C12.8653 78.9666 12.7305 78.9222 12.5966 78.874C12.4631 78.8262 12.3304 78.7749 12.1995 78.7207C12.0681 78.666 11.9385 78.6087 11.8101 78.5475C11.6814 78.4868 11.5547 78.423 11.4294 78.3559C11.3041 78.2891 11.1809 78.2189 11.059 78.1461C10.9371 78.0729 10.8169 77.9967 10.6989 77.9178C10.5809 77.839 10.4651 77.7572 10.3509 77.6723C10.2368 77.5879 10.1248 77.5005 10.015 77.4105C9.90515 77.32 9.79791 77.2274 9.69239 77.1322C9.5873 77.0366 9.48436 76.9389 9.38401 76.8385C9.28366 76.7377 9.18546 76.6352 9.09027 76.5297C8.99466 76.4246 8.90206 76.3169 8.81204 76.2071C8.72159 76.0973 8.63459 75.9853 8.54975 75.8716C8.4649 75.7575 8.3835 75.6412 8.30425 75.5232C8.22543 75.4051 8.14963 75.285 8.07641 75.1635C8.00319 75.0416 7.93342 74.918 7.86623 74.7927C7.79904 74.6674 7.7353 74.5407 7.67457 74.4124C7.61384 74.284 7.55613 74.154 7.50186 74.023C7.44716 73.8917 7.39591 73.7594 7.3481 73.6255C7.30029 73.492 7.2555 73.3572 7.21415 73.2211C7.1728 73.0854 7.1349 72.9484 7.10045 72.8106C7.06556 72.6728 7.03455 72.5345 7.00655 72.395C6.97899 72.2559 6.95444 72.1159 6.93334 71.9755C6.91266 71.8351 6.895 71.6938 6.88079 71.5526C6.86701 71.4113 6.85624 71.2696 6.84892 71.1279C6.84203 70.9862 6.83858 70.8441 6.83815 70.7019V68.8663C7.34939 69.0063 7.87053 69.076 8.40072 69.0752H11.398V70.7015C11.398 70.8363 11.4044 70.9711 11.4178 71.1059C11.4311 71.2403 11.4509 71.3738 11.4772 71.506C11.5035 71.6387 11.5362 71.7696 11.5754 71.8988C11.6146 72.0285 11.6598 72.1555 11.7115 72.28C11.7632 72.4049 11.8209 72.5272 11.8846 72.6461C11.9484 72.7654 12.0173 72.8813 12.0927 72.9937C12.1676 73.1061 12.2477 73.2146 12.3334 73.3193C12.4191 73.4235 12.5096 73.5239 12.6048 73.6195C12.7004 73.7151 12.8003 73.806 12.9045 73.8917C13.0088 73.9774 13.1173 74.0579 13.2293 74.1333C13.3417 74.2087 13.4575 74.278 13.5764 74.3418C13.6953 74.4059 13.8172 74.4636 13.9421 74.5158C14.067 74.5674 14.194 74.6131 14.3233 74.6527C14.4525 74.6923 14.583 74.7251 14.7156 74.7518C14.8483 74.7785 14.9814 74.7987 15.1157 74.8121C15.2505 74.8259 15.3854 74.8327 15.5202 74.8327H53.0499C53.1851 74.8327 53.3204 74.8259 53.4548 74.8125C53.5896 74.7992 53.7231 74.7789 53.8557 74.7526C53.9884 74.7259 54.1193 74.6932 54.2485 74.6536C54.3782 74.6144 54.5052 74.5687 54.6301 74.517C54.755 74.4649 54.8773 74.4072 54.9967 74.3435C55.116 74.2797 55.2318 74.21 55.3442 74.135C55.4566 74.0596 55.5652 73.9791 55.6694 73.8934C55.7741 73.8077 55.874 73.7168 55.9696 73.6212C56.0656 73.5256 56.1561 73.4252 56.2418 73.321C56.3279 73.2163 56.4085 73.1078 56.4834 72.9954C56.5588 72.883 56.6281 72.7671 56.6919 72.6478C56.7556 72.5285 56.8138 72.4066 56.8655 72.2817C56.9171 72.1564 56.9628 72.0293 57.0024 71.9001C57.0416 71.7705 57.0748 71.6395 57.101 71.5069C57.1277 71.3742 57.1476 71.2407 57.1609 71.1059C57.1743 70.9715 57.1812 70.8367 57.1816 70.7015V49.4887C57.3573 49.3509 57.5244 49.2036 57.6833 49.0468C57.8427 48.8901 57.9922 48.7247 58.1326 48.5511C58.273 48.3775 58.403 48.1962 58.5228 48.008C58.6425 47.8194 58.751 47.6247 58.8488 47.424C58.9466 47.2233 59.0327 47.0178 59.1072 46.8072C59.1817 46.5966 59.2438 46.3825 59.2942 46.165C59.3446 45.9475 59.382 45.7275 59.4074 45.5056C59.4328 45.2838 59.4453 45.0612 59.4453 44.8381V31.1044C59.4453 30.8809 59.4328 30.6582 59.4074 30.4364C59.382 30.2146 59.3446 29.9949 59.2942 29.7774C59.2438 29.5599 59.1817 29.3459 59.1072 29.1352C59.0327 28.9246 58.9466 28.7188 58.8488 28.518C58.751 28.3173 58.6425 28.1227 58.5228 27.9345C58.403 27.7458 58.273 27.5649 58.1326 27.3909C57.9922 27.2173 57.8427 27.052 57.6833 26.8952C57.5244 26.7384 57.3573 26.5911 57.1816 26.4533V8.68397C57.1812 8.54873 57.1743 8.41392 57.1605 8.27954C57.1471 8.14516 57.1269 8.01165 57.1006 7.87942C57.0739 7.74677 57.0407 7.61584 57.0011 7.48663C56.9619 7.35742 56.9163 7.23036 56.8642 7.10589C56.8125 6.98099 56.7543 6.8591 56.6906 6.74023C56.6268 6.62092 56.5571 6.5055 56.4817 6.39308C56.4068 6.28067 56.3262 6.17257 56.2401 6.06834C56.1544 5.96411 56.0635 5.86419 55.9679 5.76857C55.8723 5.67296 55.7723 5.58251 55.6677 5.4968C55.5634 5.41152 55.4549 5.33098 55.3425 5.25604C55.2301 5.1811 55.1142 5.11176 54.9949 5.04801C54.8756 4.9847 54.7537 4.92699 54.6288 4.8753C54.5039 4.82362 54.3769 4.7784 54.2477 4.7392C54.1185 4.70001 53.9875 4.66728 53.8549 4.64057C53.7222 4.6143 53.5887 4.59449 53.4543 4.58157C53.3199 4.56822 53.1851 4.56132 53.0499 4.56132H47.6705C47.5671 4.56175 47.4659 4.57468 47.3664 4.60095C47.2665 4.62722 47.1717 4.66555 47.0821 4.71638C46.9921 4.76677 46.9103 4.82836 46.8362 4.89985C46.7626 4.97178 46.6988 5.05189 46.6454 5.14018L45.2013 7.55425H23.3688L21.9246 5.14018C21.8717 5.05189 21.8079 4.97178 21.7338 4.90028C21.6598 4.82836 21.5779 4.7672 21.4883 4.71638C21.3988 4.66555 21.304 4.62722 21.2041 4.60095C21.1046 4.57468 21.0029 4.56175 20.9 4.56175H15.5202C15.3854 4.56175 15.2505 4.56865 15.1162 4.582C14.9822 4.59535 14.8487 4.61516 14.7165 4.64186C14.5838 4.66814 14.4533 4.70087 14.3241 4.74006C14.1949 4.77969 14.0683 4.82491 13.9434 4.8766C13.8189 4.92828 13.697 4.98599 13.5781 5.04974C13.4588 5.11348 13.3434 5.18282 13.231 5.25776C13.119 5.3327 13.0105 5.41325 12.9063 5.49895C12.802 5.58466 12.7021 5.67511 12.6069 5.77029C12.5113 5.86591 12.4209 5.96583 12.3352 6.07006C12.2494 6.17429 12.1693 6.28282 12.094 6.39481C12.019 6.50722 11.9497 6.62265 11.8859 6.74195C11.8222 6.86082 11.7645 6.98271 11.7128 7.10718C11.6611 7.23208 11.6159 7.35871 11.5763 7.48792C11.5371 7.61713 11.5043 7.74763 11.4781 7.88028C11.4514 8.01251 11.4315 8.14602 11.4182 8.27997C11.4048 8.41435 11.398 8.54916 11.398 8.68397V13.59Z" fill="#373737"/>
</g>
</svg>
