<svg width="57" height="42" viewBox="0 0 57 42" fill="none" xmlns="http://www.w3.org/2000/svg">
<path d="M41.8379 12.0498C42.4912 11.6205 43.2728 11.4748 44.0432 11.6399C44.8168 11.8064 45.4751 12.2646 45.8963 12.9312L47.4699 15.4346V1.96179H9.23254V15.4346L10.803 12.9334C11.2274 12.2656 11.8857 11.8064 12.6592 11.6399C13.4266 11.4778 14.2125 11.6205 14.8646 12.0498C15.6853 12.5891 16.1743 13.5014 16.1743 14.4894C16.1743 14.7985 16.1189 15.1202 16.011 15.4469C15.3238 17.3758 14.6396 19.3051 13.9628 21.234H42.7387C42.0616 19.3051 41.3787 17.3768 40.6945 15.4571C40.5827 15.1212 40.5272 14.7985 40.5272 14.4906C40.5272 13.5023 41.0181 12.5901 41.8379 12.0508V12.0498ZM39.3305 18.5901C38.8035 19.1765 38.0494 19.5134 37.2608 19.5134C36.061 19.5134 35.0009 18.7472 34.6249 17.6079L33.6541 14.6641H23.0483L22.0776 17.607C21.7016 18.7472 20.6414 19.5134 19.4408 19.5134C18.6518 19.5134 17.898 19.1765 17.371 18.5901C16.8462 18.0067 16.5944 17.2261 16.6785 16.4482L17.9103 4.76902C17.9689 4.16098 18.499 3.68114 19.1184 3.68114H22.5328C22.8758 3.68114 23.2126 3.83123 23.4357 4.08393L24.466 5.21065H32.2356L33.272 4.07777C33.4886 3.83215 33.8258 3.68114 34.1697 3.68114H37.5844C38.2047 3.68114 38.7348 4.16191 38.7921 4.77519L40.0227 16.4482C40.1071 17.2261 39.8544 18.0055 39.3305 18.5891V18.5901Z" fill="#373737"/>
<mask id="mask0_68_75" style="mask-type:luminance" maskUnits="userSpaceOnUse" x="0" y="8" width="21" height="34">
<path d="M0 8.08069H20.9071V41.1376H0V8.08069Z" fill="white"/>
</mask>
<g mask="url(#mask0_68_75)">
<path d="M14.4536 24.5025C15.9501 26.2786 15.5609 28.5795 15.4675 29.0211C15.416 29.2636 15.2034 29.4291 14.9661 29.4291C14.9313 29.4291 14.8952 29.426 14.8595 29.4177C14.5809 29.3592 14.4043 29.087 14.4619 28.8097C14.5377 28.4469 14.8573 26.5744 13.6699 25.166C13.3176 24.7552 12.8779 24.4298 12.3253 24.174C12.321 24.1718 12.3179 24.1678 12.3139 24.1657C12.2963 24.1574 12.284 24.1419 12.2677 24.1318C12.2193 24.1 12.1761 24.0661 12.1413 24.0218C12.1351 24.0147 12.1259 24.0116 12.1197 24.0033C12.1096 23.9891 12.1096 23.9715 12.1012 23.9561C12.0766 23.912 12.0581 23.8667 12.047 23.8174C12.0408 23.7919 12.0365 23.7672 12.0347 23.7404C12.0316 23.6889 12.0387 23.6387 12.051 23.5872C12.055 23.57 12.051 23.5515 12.0562 23.5339L12.7524 21.5742C13.5075 19.416 14.2727 17.2587 15.037 15.111C15.1079 14.8971 15.1439 14.6897 15.1439 14.4894C15.1439 13.8484 14.8265 13.2579 14.2973 12.9087C13.8742 12.6313 13.37 12.5398 12.8708 12.6437C12.3694 12.7515 11.9422 13.0492 11.6679 13.4798L9.15009 17.4877L7.18913 20.6167C7.06709 20.8099 6.82763 20.9023 6.6119 20.8376C6.39125 20.7738 6.24024 20.5726 6.24024 20.3445V8.14636L0.826714 19.1324C-0.39153 21.6059 -0.308321 24.5161 1.04552 26.9165L4.19299 32.4974C4.39947 32.8641 4.50918 33.2799 4.50918 33.699V41.0907H14.9652V34.4171C14.9652 33.5276 15.4376 32.715 16.1988 32.2958C17.8763 31.3694 20.6465 29.0981 20.8314 24.2233H14.1494C14.2471 24.3188 14.3602 24.399 14.4496 24.5025H14.4536Z" fill="#373737"/>
</g>
<path d="M39.0016 16.5574L37.7701 4.87702C37.7608 4.78056 37.6776 4.70844 37.5842 4.70844H34.1696C34.1194 4.70844 34.0639 4.73002 34.0361 4.76392L32.8416 6.06969C32.7439 6.17632 32.6062 6.23703 32.4626 6.23703H24.2397C24.0948 6.23703 23.9583 6.17632 23.8606 6.07061L22.6713 4.77008C22.6374 4.73002 22.582 4.70752 22.5326 4.70752H19.1183C19.0237 4.70752 18.9405 4.78056 18.9322 4.87086L17.6997 16.5562C17.6461 17.0524 17.8011 17.5301 18.1352 17.903C18.4668 18.2728 18.9436 18.4854 19.4407 18.4854C20.1966 18.4854 20.8654 18.0025 21.1027 17.2835L22.1906 13.9884C22.2593 13.7776 22.4565 13.6349 22.6784 13.6349H34.0269C34.2488 13.6349 34.4451 13.7776 34.5148 13.9884L35.6026 17.2847C35.8399 18.0025 36.5075 18.4854 37.2637 18.4854C37.7596 18.4854 38.2364 18.2728 38.5692 17.903C38.903 17.531 39.058 17.0536 39.0047 16.5574H39.0016ZM24.705 10.0995H22.9434V11.8598C22.9434 12.1433 22.7132 12.3736 22.4297 12.3736C22.1462 12.3736 21.9163 12.1433 21.9163 11.8598V10.0995H20.1556C19.8721 10.0995 19.6419 9.86926 19.6419 9.58574C19.6419 9.30221 19.8721 9.072 20.1556 9.072H21.9163V7.31043C21.9163 7.0269 22.1462 6.797 22.4297 6.797C22.7132 6.797 22.9434 7.0269 22.9434 7.31043V9.072H24.705C24.9885 9.072 25.2188 9.30221 25.2188 9.58574C25.2188 9.86926 24.9885 10.0995 24.705 10.0995ZM32.4604 10.0511C32.1778 10.0511 31.9417 9.82088 31.9417 9.53735C31.9417 9.25382 32.1667 9.02392 32.4502 9.02392H32.4604C32.7439 9.02392 32.9742 9.25382 32.9742 9.53735C32.9742 9.82088 32.7439 10.0511 32.4604 10.0511ZM34.6873 12.278C34.405 12.278 34.1687 12.0478 34.1687 11.7643C34.1687 11.4811 34.3936 11.2508 34.6772 11.2508H34.6873C34.9709 11.2508 35.2011 11.4811 35.2011 11.7643C35.2011 12.0478 34.9709 12.278 34.6873 12.278ZM34.6873 7.82417C34.405 7.82417 34.1687 7.59395 34.1687 7.31043C34.1687 7.0269 34.3936 6.797 34.6772 6.797H34.6873C34.9709 6.797 35.2011 7.0269 35.2011 7.31043C35.2011 7.59395 34.9709 7.82417 34.6873 7.82417ZM36.9143 10.0511C36.632 10.0511 36.3956 9.82088 36.3956 9.53735C36.3956 9.25382 36.6206 9.02392 36.9041 9.02392H36.9143C37.1978 9.02392 37.428 9.25382 37.428 9.53735C37.428 9.82088 37.1978 10.0511 36.9143 10.0511Z" fill="#373737"/>
<path d="M49.4307 18.5584V0.623453C49.4307 0.279213 49.1511 0 48.8072 0H7.89481C7.55088 0 7.27136 0.279213 7.27136 0.623453V18.5584L8.20515 17.069V1.44722C8.20515 1.1637 8.43506 0.933484 8.71858 0.933484H47.9844C48.2679 0.933484 48.4981 1.1637 48.4981 1.44722V17.069L49.4316 18.5584H49.4307Z" fill="#373737"/>
<path d="M13.2694 23.195H43.4321L43.1002 22.2612H13.6022L13.2694 23.195Z" fill="#373737"/>
<path d="M50.4579 8.15161V20.3455C50.4579 20.5744 50.3069 20.776 50.0862 20.8386C50.04 20.853 49.9916 20.8592 49.9445 20.8592C49.7707 20.8592 49.6055 20.7708 49.5087 20.6188L47.5478 17.4898C47.5478 17.4898 47.5478 17.4877 47.5478 17.4868L45.0293 13.4798C44.7559 13.0505 44.3288 12.7534 43.8274 12.6455C43.3324 12.5407 42.8227 12.6332 42.4017 12.9106C41.8707 13.2597 41.5542 13.8505 41.5542 14.4915C41.5542 14.6919 41.5903 14.8993 41.6652 15.1233C42.4273 17.2599 43.1907 19.4169 43.9454 21.5742L44.6419 23.5361C44.6481 23.5533 44.6431 23.5731 44.6481 23.5915C44.6604 23.6418 44.6666 23.6911 44.6635 23.7413C44.6616 23.7681 44.6573 23.7928 44.6511 23.8196C44.6401 23.8677 44.6225 23.913 44.5978 23.9561C44.5895 23.9715 44.5895 23.99 44.5793 24.0045C44.5741 24.0125 44.5639 24.0156 44.5578 24.023C44.5239 24.0661 44.4816 24.0988 44.4345 24.1296C44.4169 24.141 44.4037 24.1574 44.3843 24.1666C44.3799 24.1688 44.379 24.1719 44.375 24.174C43.8212 24.4316 43.3805 24.7562 43.0292 25.1691C41.8387 26.5806 42.1613 28.4482 42.2384 28.8085C42.2979 29.087 42.12 29.3592 41.843 29.4187C41.8069 29.4261 41.7709 29.4301 41.7351 29.4301C41.4988 29.4301 41.2852 29.2646 41.2337 29.0233C41.1391 28.5807 40.7437 26.2847 42.2455 24.5056C42.3349 24.3999 42.4489 24.3189 42.5475 24.2233H35.8636C36.0495 29.1012 38.8219 31.3673 40.5024 32.2909C41.2615 32.7285 41.729 33.5409 41.729 34.4183V41.0929H52.1856V33.7033C52.1856 33.282 52.2934 32.8765 52.5061 32.4983L55.6536 26.9187C57.0043 24.5149 57.0844 21.6028 55.8662 19.1312L50.4561 8.15254L50.4579 8.15161Z" fill="#373737"/>
</svg>
