<svg width="19" height="19" viewBox="0 0 19 19" fill="none" xmlns="http://www.w3.org/2000/svg">
<path fill-rule="evenodd" clip-rule="evenodd" d="M6.5887 0.198668C6.68386 0.293807 6.74861 0.41508 6.77472 0.54709C6.80084 0.679099 6.78713 0.81589 6.73535 0.940096C6.32148 1.93339 6.10915 2.99903 6.1107 4.0751C6.1107 6.23597 6.96911 8.30833 8.49708 9.8363C10.0251 11.3643 12.0974 12.2227 14.2583 12.2227C15.3344 12.2242 16.4 12.0119 17.3933 11.598C17.5174 11.5463 17.6541 11.5326 17.786 11.5587C17.9179 11.5848 18.0391 11.6494 18.1342 11.7444C18.2293 11.8395 18.2941 11.9606 18.3203 12.0925C18.3465 12.2243 18.333 12.361 18.2814 12.4852C17.559 14.2172 16.3402 15.6968 14.7786 16.7374C13.2169 17.7781 11.3822 18.3334 9.50554 18.3333C4.25577 18.3333 0 14.0785 0 8.82784C0 4.87356 2.41441 1.48417 5.84817 0.0520117C5.97226 0.000428166 6.10887 -0.0131711 6.24069 0.012936C6.37252 0.0390431 6.49363 0.103682 6.5887 0.198668Z" fill="black"/>
</svg>
