<svg width="58" height="58" viewBox="0 0 58 58" fill="none" xmlns="http://www.w3.org/2000/svg">
<path d="M28.3658 34.2138C28.5824 33.6855 28.4669 33.1031 28.0604 32.69L25.1664 29.796C24.757 29.3936 24.1747 29.2787 23.6433 29.4966L22.274 30.0676V23.4603C22.274 23.3673 22.3528 23.2882 22.446 23.2882H34.4304C34.5217 23.2882 34.599 23.367 34.599 23.4603V35.3847C34.599 35.4776 34.5217 35.5567 34.4304 35.5567H27.8077L28.3658 34.2138ZM37.8226 19.4176H19.0541C18.6862 19.4176 18.3867 19.7155 18.3867 20.0819V27.4081L19.1618 29.2922C19.7403 29.4699 20.3066 29.6852 20.8569 29.9351V23.4606C20.8569 22.5841 21.5698 21.8712 22.4463 21.8712H34.4307C35.3053 21.8712 36.0169 22.5841 36.0169 23.4606V35.3847C36.0169 36.2611 35.3053 36.9741 34.4307 36.9741H27.9135C28.1687 37.535 28.3884 38.1111 28.5689 38.6993L30.3391 39.4276H37.8229C38.1908 39.4276 38.4903 39.1294 38.4903 38.7634V20.0819C38.4903 19.7155 38.1905 19.4176 37.8226 19.4176ZM29.9266 40.791L30.0082 40.8246V44.8895L27.7141 45.8366C27.5129 45.9194 27.3613 46.0905 27.3023 46.2999C27.0242 47.2897 26.6305 48.2371 26.1326 49.1157C26.0246 49.3063 26.0105 49.5361 26.095 49.7382L27.0502 52.0292L24.1782 54.9044L21.8844 53.9507C21.6838 53.8675 21.4556 53.8807 21.2657 53.9871C20.3635 54.4934 19.4148 54.8861 18.4461 55.1545C18.2351 55.2129 18.0631 55.3658 17.9799 55.5683L17.0378 57.8611H12.9698L12.0246 55.5673C11.9414 55.3655 11.7697 55.2129 11.559 55.1545C10.585 54.8839 9.63787 54.4912 8.74352 53.9877C8.5536 53.8807 8.32507 53.8672 8.12385 53.9507L5.82943 54.9044L2.95647 52.0314L3.91015 49.7373C3.99396 49.5361 3.98046 49.3072 3.87342 49.1173C3.36958 48.2229 2.97687 47.2755 2.70659 46.3018C2.6482 46.0915 2.49564 45.9197 2.29379 45.8362L0 44.8904V40.8227L2.29285 39.8809C2.49564 39.7977 2.6482 39.6254 2.7069 39.4148C2.9753 38.4463 3.36801 37.4977 3.87436 36.5955C3.98078 36.4056 3.99396 36.1773 3.91046 35.9764L2.95678 33.6823L5.83257 30.8103L8.12322 31.7659C8.32507 31.8503 8.55486 31.8365 8.74572 31.7282C9.62437 31.2303 10.5718 30.8367 11.5616 30.5585C11.7709 30.4995 11.9417 30.3476 12.0246 30.1467L12.9723 27.8526H17.0369L17.0385 27.856L17.9805 30.1457C18.0634 30.3476 18.2345 30.4998 18.4445 30.5585C19.4286 30.8345 20.3776 31.2281 21.2641 31.7288C21.4546 31.8365 21.6838 31.85 21.8853 31.7659L24.1763 30.81L27.0505 33.6848L26.0981 35.9761C26.0315 36.1362 26.0275 36.3129 26.0821 36.4746C26.083 36.4781 26.0846 36.4815 26.0855 36.485C26.0906 36.4985 26.095 36.5123 26.1006 36.5258C26.1169 36.5669 26.137 36.6061 26.1603 36.6432C26.6478 37.5203 27.032 38.4529 27.3023 39.4163C27.361 39.6263 27.5132 39.7977 27.7151 39.8806L29.9191 40.7875C29.9216 40.7888 29.9241 40.79 29.9266 40.791ZM24.9027 42.5568C24.8227 39.912 23.717 37.4572 21.7902 35.6452C19.864 33.8327 17.3489 32.8793 14.7035 32.9581C12.0591 33.0385 9.60491 34.1435 7.79298 36.0706C5.97886 37.9962 5.02392 40.5128 5.10397 43.1573C5.18402 45.8014 6.28869 48.2556 8.21457 50.0685C10.0673 51.8116 12.4653 52.7619 14.9974 52.7616C15.0994 52.7616 15.2017 52.76 15.3044 52.7568C17.9485 52.6771 20.403 51.5721 22.2159 49.6456C24.0284 47.7182 24.9827 45.2006 24.9027 42.5568ZM20.3945 12.966V18H21.8122V12.966C21.8122 12.5746 21.4948 12.2572 21.1034 12.2572C20.7119 12.2572 20.3945 12.5746 20.3945 12.966ZM45.6036 22.0875C45.6036 21.696 45.2863 21.3787 44.8948 21.3787H39.9079V22.7963H44.8948C45.2863 22.7963 45.6036 22.479 45.6036 22.0875ZM36.4821 12.966C36.4821 12.5746 36.1648 12.2572 35.7733 12.2572C35.3819 12.2572 35.0645 12.5746 35.0645 12.966V18H36.4821V12.966ZM44.8948 36.0486H39.9079V37.4663H44.8948C45.2863 37.4663 45.6036 37.1489 45.6036 36.7575C45.6036 36.366 45.2863 36.0486 44.8948 36.0486ZM11.9819 22.7963H16.9691V21.3787H11.9819C11.5904 21.3787 11.2731 21.696 11.2731 22.0875C11.2731 22.479 11.5904 22.7963 11.9819 22.7963ZM51.6305 27.4137L54.3016 23.8031C54.6209 23.9503 54.9753 24.0335 55.3492 24.0335C56.7342 24.0335 57.8608 22.9081 57.8608 21.5246C57.8608 20.1412 56.7342 19.0133 55.3492 19.0133C53.9645 19.0133 52.8403 20.1396 52.8403 21.5246C52.8403 22.0184 52.9857 22.478 53.2334 22.8666L50.728 26.2676H39.9079V27.6853H51.073C51.2905 27.6853 51.4958 27.5851 51.6305 27.4137ZM20.5405 5.02047C21.1209 5.02047 21.6543 4.82082 22.08 4.4887L25.2835 7.13282V18H26.7008V6.78814C26.7008 6.57028 26.6007 6.36466 26.4296 6.23031L22.9103 3.33474C23.0001 3.0767 23.0493 2.79982 23.0493 2.51165C23.0493 1.12665 21.9239 0 20.5405 0C19.1571 0 18.0289 1.12665 18.0289 2.51165C18.0289 3.89633 19.1555 5.02047 20.5405 5.02047ZM36.3362 0C34.9527 0 33.8274 1.12665 33.8274 2.51133C33.8274 2.85099 33.8955 3.17464 34.0185 3.47066L30.4471 6.23031C30.276 6.36466 30.1756 6.57028 30.1756 6.78814V18H31.5932V7.13282L34.9094 4.57314C35.3147 4.85441 35.8063 5.02016 36.3362 5.02016C37.7212 5.02016 38.8478 3.89477 38.8478 2.51133C38.8478 1.1279 37.7212 0 36.3362 0ZM55.3492 34.8115C55.0211 34.8115 54.7078 34.8755 54.4203 34.9907L51.6305 31.4312C51.4962 31.2598 51.2905 31.1597 51.0727 31.1597H39.9076V32.5773H50.7277L53.3071 35.8684C53.0143 36.2794 52.8403 36.781 52.8403 37.3231C52.8403 38.7066 53.9657 39.832 55.3492 39.832C56.7326 39.832 57.8608 38.7066 57.8608 37.3231C57.8608 35.9397 56.7342 34.8115 55.3492 34.8115ZM11.8868 39.7284C11.6096 39.4515 11.161 39.4521 10.8841 39.729L8.25915 42.3577C7.98259 42.6343 7.98259 43.0826 8.25915 43.3594L10.8841 45.9879C11.0229 46.1266 11.204 46.1957 11.3858 46.1957C11.5672 46.1957 11.7483 46.1266 11.8865 45.9885C12.1636 45.7119 12.1636 45.263 11.8871 44.9862L9.76187 42.8584L11.8871 40.7307C12.1636 40.4535 12.164 40.0049 11.8868 39.7284ZM19.12 39.7287C18.8432 39.4518 18.3943 39.4518 18.1177 39.7287C17.8408 40.0056 17.8408 40.4544 18.1177 40.731L20.2448 42.8587L18.1177 44.9862C17.8408 45.263 17.8408 45.7116 18.1177 45.9885C18.2558 46.1269 18.4376 46.1963 18.6187 46.1963C18.7998 46.1963 18.9816 46.1269 19.1197 45.9885L21.7482 43.3601C22.025 43.0832 22.025 42.6343 21.7482 42.3577L19.12 39.7287ZM16.4448 37.4726C16.0672 37.3708 15.6783 37.5953 15.5769 37.9736L13.0586 47.3732C12.9575 47.7511 13.182 48.1398 13.5599 48.2412C13.6215 48.2575 13.683 48.2656 13.7439 48.2656C14.0566 48.2656 14.3432 48.0569 14.4279 47.7401L16.9462 38.3408C17.0472 37.9626 16.8231 37.5743 16.4448 37.4726Z" fill="#373737"/>
</svg>
