<svg width="103" height="87" viewBox="0 0 103 87" fill="none" xmlns="http://www.w3.org/2000/svg">
<mask id="mask0_40_128" style="mask-type:luminance" maskUnits="userSpaceOnUse" x="0" y="0" width="103" height="87">
<path d="M0 0H102.816V86.7646H0V0Z" fill="white"/>
</mask>
<g mask="url(#mask0_40_128)">
<path d="M6.67413 75.4882H54.3648L60.225 81.8862C63.0749 84.987 67.1431 86.7789 71.3549 86.7789C78.3624 86.7789 84.2404 81.9762 85.943 75.4882H96.1049C97.8617 75.4882 99.5285 74.8072 100.783 73.5527C102.019 72.2981 102.7 70.6491 102.7 68.8929C102.7 68.4092 102.306 67.9969 101.804 67.9969H95.1195V13.3166C95.1195 10.7716 93.0226 8.67469 90.4419 8.67469H80.9431V0.860577C80.9431 0.376839 80.5487 -0.0354004 80.0471 -0.0354004H22.7319C22.2303 -0.0354004 21.8359 0.376839 21.8359 0.860577V8.67469H12.3371C9.75642 8.67469 7.65948 10.7716 7.65948 13.3166V67.9969H0.974835C0.472663 67.9969 0.0788574 68.4092 0.0788574 68.8929C0.0788574 72.531 3.03603 75.4882 6.67413 75.4882ZM84.6527 71.6708C84.6527 79.019 78.6847 84.987 71.3549 84.987C67.6448 84.987 64.0603 83.4095 61.5511 80.668L50.2067 68.3013C49.2571 67.2618 49.275 65.667 50.2424 64.6454C50.7625 64.1075 51.4613 63.8209 52.178 63.8209C52.6081 63.8209 53.0561 63.9287 53.4504 64.1438L60.4758 67.9969C60.7451 68.1399 61.0852 68.1399 61.3545 67.979C61.641 67.8176 61.8025 67.5132 61.8025 67.2082V41.956C61.8025 40.7014 62.8236 39.6619 64.096 39.6619C65.3506 39.6619 66.3723 40.7014 66.3723 41.956V61.1508C66.3723 61.6525 66.7845 62.0468 67.2683 62.0468C67.7704 62.0468 68.1648 61.6525 68.1648 61.1508V51.9028C68.1648 50.7197 69.1323 49.7701 70.3154 49.7701C71.4979 49.7701 72.4659 50.7197 72.4659 51.9028V62.0468C72.4659 62.5484 72.8603 62.9428 73.3619 62.9428C73.8457 62.9428 74.2579 62.5484 74.2579 62.0468V54.0355C74.2579 52.8887 75.1902 51.9565 76.337 51.9565C77.4843 51.9565 78.4339 52.8887 78.4339 54.0355V61.1145C78.4339 61.5988 78.8283 62.0111 79.3299 62.0111C79.8142 62.0111 80.2264 61.5988 80.2264 61.1145V56.0967C80.2264 54.8779 81.2118 53.892 82.4306 53.892C83.6673 53.892 84.6527 54.8779 84.6527 56.0967V71.6708ZM60.0099 62.1719V65.6849L54.3285 62.5842C53.9883 62.387 53.6297 62.2619 53.2711 62.1719H60.0099ZM60.1893 40.8271H34.9192C32.7865 40.8271 31.0661 39.1067 31.0661 36.974C31.0661 35.9702 31.4783 35.02 32.195 34.2855C32.9301 33.5504 33.8976 33.1381 34.9192 33.1381H67.8598C69.9925 33.1381 71.713 34.8591 71.713 36.974C71.713 37.9951 71.3007 38.9631 70.5841 39.6976C69.8853 40.397 68.953 40.7914 67.9855 40.8271C67.5018 39.1245 65.9422 37.8699 64.096 37.8699C62.2326 37.8699 60.673 39.1245 60.1893 40.8271ZM100.819 69.7889C100.64 70.7212 100.192 71.5993 99.5101 72.2981C98.5962 73.2119 97.3952 73.6962 96.1049 73.6962H86.3016C86.3916 73.0332 86.4452 72.3696 86.4452 71.6708V69.7889H100.819ZM80.9431 10.4672H90.4419C92.0367 10.4672 93.327 11.7575 93.327 13.3166V67.9969H86.4452V62.1719H87.5384C88.04 62.1719 88.4343 61.7776 88.4343 61.276V16.2559C88.4343 15.7721 88.04 15.3599 87.5384 15.3599H80.9431V10.4672ZM23.6284 1.75656H79.1506V8.49538H23.6284V1.75656ZM23.6284 10.2879H79.1506V47.3503H68.1648V42.6012C69.5445 42.5118 70.8527 41.956 71.8386 40.9701C72.9139 39.8948 73.5055 38.4794 73.5055 36.974C73.5055 33.8732 70.9784 31.3462 67.8598 31.3462H34.9192C33.4138 31.3462 31.9978 31.9377 30.9404 33.013C29.8651 34.0883 29.2735 35.4864 29.2735 36.974C29.2735 40.092 31.8006 42.6191 34.9192 42.6191H60.0099V47.3503H23.6284V10.2879ZM9.45199 13.3166C9.45199 11.7575 10.7423 10.4672 12.3371 10.4672H21.8359V15.3599H15.2407C14.739 15.3599 14.3447 15.7721 14.3447 16.2559V61.276C14.3447 61.7776 14.739 62.1719 15.2407 62.1719H51.0848C50.2782 62.387 49.5437 62.7814 48.9342 63.4087C47.7511 64.6633 47.4288 66.4558 47.9662 67.9969H9.45199V13.3166ZM49.1314 69.7889L52.7159 73.6962H6.67413C4.32637 73.6962 2.37243 72.0115 1.96075 69.7889H49.1314Z" fill="#373737"/>
</g>
</svg>
