<svg width="103" height="103" viewBox="0 0 103 103" fill="none" xmlns="http://www.w3.org/2000/svg">
<path d="M50.4048 60.7963C50.7897 59.8575 50.5844 58.8228 49.862 58.0887L44.7195 52.9462C43.9921 52.231 42.9574 52.0269 42.013 52.414L39.5798 53.4287V41.6878C39.5798 41.5227 39.7198 41.3821 39.8855 41.3821H61.1812C61.3435 41.3821 61.4807 41.5221 61.4807 41.6878V62.877C61.4807 63.0421 61.3435 63.1826 61.1812 63.1826H49.413L50.4048 60.7963ZM67.2089 34.5042H33.8583C33.2045 34.5042 32.6724 35.0336 32.6724 35.6846V48.7029L34.0496 52.0509C35.0777 52.3666 36.084 52.7493 37.0618 53.1933V41.6883C37.0618 40.1309 38.3286 38.8641 39.886 38.8641H61.1818C62.7358 38.8641 64.0004 40.1309 64.0004 41.6883V62.877C64.0004 64.4344 62.7358 65.7012 61.1818 65.7012H49.6009C50.0545 66.698 50.4449 67.7216 50.7657 68.7669L53.9112 70.0611H67.2095C67.8633 70.0611 68.3954 69.5311 68.3954 68.8807V35.6846C68.3954 35.0336 67.8627 34.5042 67.2089 34.5042ZM53.1782 72.4837L53.3233 72.5433V79.7665L49.2467 81.4494C48.8892 81.5967 48.6198 81.9007 48.5149 82.2728C48.0207 84.0315 47.3212 85.715 46.4365 87.2764C46.2446 87.615 46.2195 88.0233 46.3695 88.3825L48.067 92.4534L42.9635 97.5625L38.8875 95.8678C38.5311 95.72 38.1256 95.7434 37.7881 95.9325C36.1849 96.8323 34.4992 97.5301 32.7778 98.0071C32.4029 98.1108 32.0973 98.3825 31.9494 98.7423L30.2754 102.817H23.0467L21.3671 98.7406C21.2193 98.3819 20.9142 98.1108 20.5399 98.0071C18.809 97.5262 17.1261 96.8284 15.5368 95.9337C15.1994 95.7434 14.7933 95.7194 14.4357 95.8678L10.3586 97.5625L5.25351 92.4574L6.94815 88.3808C7.09709 88.0233 7.0731 87.6166 6.88289 87.2791C5.98759 85.6899 5.28976 84.0064 4.80948 82.2761C4.70573 81.9024 4.43463 81.5972 4.07596 81.4489L0 79.7682V72.54L4.07428 70.8665C4.43463 70.7187 4.70573 70.4125 4.81004 70.0382C5.28697 68.3173 5.9848 66.6316 6.88456 65.0285C7.07366 64.691 7.09709 64.2854 6.94871 63.9284L5.25406 59.8519L10.3642 54.7485L14.4346 56.4465C14.7933 56.5965 15.2016 56.572 15.5407 56.3795C17.1021 55.4948 18.7856 54.7953 20.5443 54.3011C20.9164 54.1962 21.2199 53.9263 21.3671 53.5692L23.0512 49.4927H30.2738C30.2749 49.495 30.2754 49.4966 30.2765 49.4989L31.9506 53.5676C32.0978 53.9262 32.4018 54.1968 32.775 54.3011C34.5238 54.7914 36.21 55.4909 37.7853 56.3806C38.1239 56.572 38.5311 56.596 38.8892 56.4465L42.9602 54.7479L48.0675 59.8564L46.3751 63.9279C46.2568 64.2124 46.2496 64.5264 46.3467 64.8137C46.3483 64.8198 46.3511 64.826 46.3528 64.8321C46.3617 64.8561 46.3695 64.8806 46.3796 64.9046C46.4086 64.9777 46.4443 65.0474 46.4856 65.1132C47.3518 66.6718 48.0346 68.329 48.5149 70.041C48.6192 70.4142 48.8897 70.7187 49.2484 70.866L53.1648 72.4775C53.1693 72.4797 53.1738 72.482 53.1782 72.4837ZM44.2509 75.6214C44.1087 70.9218 42.1441 66.5597 38.7202 63.3399C35.2974 60.1191 30.8282 58.425 26.1275 58.565C21.4285 58.7078 17.0675 60.6714 13.8478 64.0958C10.6242 67.5174 8.92728 71.9894 9.06952 76.6885C9.21176 81.3869 11.1747 85.7479 14.5969 88.9693C17.8891 92.0669 22.1503 93.7554 26.6496 93.7548C26.8309 93.7548 27.0128 93.752 27.1952 93.7465C31.8937 93.6048 36.2552 91.6413 39.4766 88.2179C42.6974 84.793 44.3932 80.3193 44.2509 75.6214ZM36.2402 23.04V31.9851H38.7592V23.04C38.7592 22.3444 38.1953 21.7805 37.4997 21.7805C36.8041 21.7805 36.2402 22.3444 36.2402 23.04ZM81.0355 39.2485C81.0355 38.5529 80.4716 37.9889 79.776 37.9889H70.9145V40.508H79.776C80.4716 40.508 81.0355 39.944 81.0355 39.2485ZM64.8271 23.04C64.8271 22.3444 64.2631 21.7805 63.5675 21.7805C62.8719 21.7805 62.308 22.3444 62.308 23.04V31.9851H64.8271V23.04ZM79.776 64.0567H70.9145V66.5758H79.776C80.4716 66.5758 81.0355 66.0119 81.0355 65.3163C81.0355 64.6207 80.4716 64.0567 79.776 64.0567ZM21.2913 40.508H30.1533V37.9889H21.2913C20.5957 37.9889 20.0317 38.5529 20.0317 39.2485C20.0317 39.944 20.5957 40.508 21.2913 40.508ZM91.745 48.7129L96.4915 42.2969C97.0588 42.5585 97.6885 42.7063 98.3529 42.7063C100.814 42.7063 102.816 40.7066 102.816 38.2483C102.816 35.79 100.814 33.7858 98.3529 33.7858C95.8924 33.7858 93.8948 35.7872 93.8948 38.2483C93.8948 39.1257 94.1531 39.9424 94.5932 40.6329L90.1413 46.6763H70.9145V49.1954H90.7543C91.1409 49.1954 91.5057 49.0175 91.745 48.7129ZM36.4995 8.92114C37.5309 8.92114 38.4787 8.56637 39.2351 7.9762L44.9276 12.6747V31.9851H47.4461V12.0622C47.4461 11.6751 47.2682 11.3097 46.9642 11.071L40.7105 5.92567C40.87 5.46715 40.9576 4.97516 40.9576 4.46308C40.9576 2.002 38.9578 0 36.4995 0C34.0412 0 32.0365 2.002 32.0365 4.46308C32.0365 6.92361 34.0385 8.92114 36.4995 8.92114ZM64.5677 0C62.1094 0 60.1096 2.002 60.1096 4.46252C60.1096 5.06608 60.2307 5.64119 60.4493 6.16721L54.1031 11.071C53.7991 11.3097 53.6206 11.6751 53.6206 12.0622V31.9851H56.1397V12.6747L62.0324 8.12626C62.7526 8.62606 63.6261 8.92058 64.5677 8.92058C67.0288 8.92058 69.0308 6.92082 69.0308 4.46252C69.0308 2.00423 67.0288 0 64.5677 0ZM98.3529 61.8584C97.77 61.8584 97.2133 61.9722 96.7023 62.1769L91.745 55.8518C91.5063 55.5473 91.1409 55.3693 90.7538 55.3693H70.914V57.8884H90.1407L94.7243 63.7365C94.2039 64.4667 93.8948 65.3581 93.8948 66.3215C93.8948 68.7798 95.8946 70.7795 98.3529 70.7795C100.811 70.7795 102.816 68.7798 102.816 66.3215C102.816 63.8632 100.814 61.8584 98.3529 61.8584ZM21.1222 70.5954C20.6297 70.1035 19.8326 70.1046 19.3406 70.5966L14.6761 75.2677C14.1847 75.7591 14.1847 76.5557 14.6761 77.0477L19.3406 81.7183C19.5871 81.9648 19.909 82.0876 20.232 82.0876C20.5544 82.0876 20.8762 81.9648 21.1217 81.7194C21.6142 81.228 21.6142 80.4303 21.1228 79.9383L17.3464 76.1574L21.1228 72.3765C21.6142 71.884 21.6148 71.0869 21.1222 70.5954ZM33.9754 70.596C33.4834 70.104 32.6858 70.104 32.1943 70.596C31.7023 71.088 31.7023 71.8857 32.1943 72.3771L35.9741 76.158L32.1943 79.9383C31.7023 80.4303 31.7023 81.2274 32.1943 81.7194C32.4398 81.9654 32.7627 82.0887 33.0846 82.0887C33.4065 82.0887 33.7294 81.9654 33.9749 81.7194L38.6455 77.0488C39.1374 76.5568 39.1374 75.7591 38.6455 75.2677L33.9754 70.596ZM29.2217 66.587C28.5507 66.4063 27.8595 66.8051 27.6794 67.4773L23.2046 84.1799C23.0249 84.8515 23.4238 85.5421 24.0954 85.7223C24.2047 85.7513 24.3141 85.7658 24.4223 85.7658C24.9779 85.7658 25.4871 85.3948 25.6378 84.832L30.1126 68.1299C30.2922 67.4577 29.8939 66.7677 29.2217 66.587Z" fill="#373737"/>
</svg>
