<svg width="23" height="23" viewBox="0 0 23 23" fill="none" xmlns="http://www.w3.org/2000/svg">
<path d="M8.67997 3.08C8.67997 2.85722 8.59147 2.64356 8.43394 2.48603C8.27641 2.3285 8.06275 2.24 7.83997 2.24C7.61718 2.24 7.40353 2.3285 7.246 2.48603C7.08847 2.64356 6.99997 2.85722 6.99997 3.08V4.48896C5.65166 4.5191 4.30602 4.62304 2.96909 4.80032C2.85973 4.81488 2.75432 4.85084 2.65886 4.90614C2.5634 4.96144 2.47977 5.035 2.41274 5.12262C2.34571 5.21024 2.2966 5.31021 2.2682 5.41681C2.23981 5.52341 2.23269 5.63457 2.24725 5.74392C2.26181 5.85327 2.29776 5.95869 2.35307 6.05415C2.40837 6.14961 2.48193 6.23324 2.56955 6.30027C2.65717 6.36729 2.75714 6.41641 2.86374 6.4448C2.97034 6.4732 3.08149 6.48032 3.19085 6.46576C5.36258 6.17765 7.5564 6.09216 9.74397 6.2104C9.28046 7.77618 8.64175 9.28465 7.83997 10.7072C7.4212 9.96453 7.04648 9.19787 6.71773 8.4112C6.62812 8.2115 6.46409 8.05466 6.26058 7.97408C6.05707 7.8935 5.83014 7.89555 5.62811 7.97977C5.42608 8.064 5.26491 8.22376 5.1789 8.42504C5.0929 8.62632 5.08886 8.85322 5.16765 9.05744C5.63883 10.1857 6.19754 11.2755 6.83869 12.3166C5.64155 14.0662 4.19746 15.6333 2.55133 16.9691C2.4619 17.0373 2.38708 17.1228 2.33131 17.2204C2.27553 17.3181 2.23993 17.4259 2.22661 17.5376C2.2133 17.6493 2.22254 17.7625 2.2538 17.8705C2.28505 17.9785 2.33768 18.0792 2.40856 18.1665C2.47944 18.2538 2.56714 18.326 2.66644 18.3788C2.76574 18.4316 2.87463 18.4639 2.98665 18.4738C3.09868 18.4837 3.21155 18.471 3.31858 18.4365C3.42561 18.402 3.52461 18.3463 3.60973 18.2728C5.20797 16.9759 6.63006 15.4758 7.83997 13.8107C7.94637 13.9586 8.05501 14.1042 8.16477 14.2486C8.29992 14.426 8.49999 14.5424 8.72095 14.5722C8.94191 14.602 9.16567 14.5428 9.34301 14.4077C9.52034 14.2725 9.63672 14.0725 9.66655 13.8515C9.69637 13.6305 9.6372 13.4068 9.50205 13.2294C9.27357 12.9315 9.05405 12.6269 8.84125 12.3166C9.98665 10.4577 10.8662 8.4476 11.4542 6.3448C11.8014 6.37952 12.1464 6.42096 12.4891 6.46576C12.7099 6.49517 12.9334 6.43564 13.1104 6.30027C13.2873 6.16489 13.4033 5.96477 13.4327 5.74392C13.4621 5.52307 13.4026 5.29958 13.2672 5.12262C13.1318 4.94566 12.9317 4.82973 12.7108 4.80032C11.3739 4.62269 10.0283 4.51875 8.67997 4.48896V3.08Z" fill="white"/>
<path fill-rule="evenodd" clip-rule="evenodd" d="M14.5599 8.96C14.716 8.96001 14.869 9.0035 15.0018 9.0856C15.1345 9.1677 15.2418 9.28516 15.3115 9.4248L20.0715 18.9448C20.1218 19.0436 20.152 19.1514 20.1604 19.2619C20.1689 19.3725 20.1553 19.4836 20.1206 19.5889C20.0859 19.6941 20.0307 19.7915 19.9582 19.8754C19.8857 19.9592 19.7973 20.0279 19.6981 20.0774C19.5989 20.1269 19.4909 20.1563 19.3803 20.1639C19.2697 20.1715 19.1587 20.1571 19.0537 20.1215C18.9487 20.086 18.8517 20.03 18.7684 19.9569C18.6851 19.8837 18.6172 19.7948 18.5684 19.6952L17.6814 17.92H11.4396L10.5515 19.6952C10.5027 19.7948 10.4347 19.8837 10.3515 19.9569C10.2682 20.03 10.1712 20.086 10.0662 20.1215C9.96122 20.1571 9.85021 20.1715 9.73961 20.1639C9.62901 20.1563 9.52101 20.1269 9.42182 20.0774C9.32263 20.0279 9.23423 19.9592 9.16171 19.8754C9.08919 19.7915 9.03398 19.6941 8.99927 19.5889C8.96456 19.4836 8.95103 19.3725 8.95947 19.2619C8.96791 19.1514 8.99814 19.0436 9.04843 18.9448L13.8084 9.4248C13.8781 9.28516 13.9854 9.1677 14.1181 9.0856C14.2509 9.0035 14.4039 8.96001 14.5599 8.96ZM16.8414 16.24L14.5599 11.6782L12.2796 16.24H16.8414Z" fill="white"/>
</svg>
