<svg width="124" height="124" viewBox="0 0 124 124" fill="none" xmlns="http://www.w3.org/2000/svg">
<path d="M85.036 46.9266C86.1713 46.1806 87.5293 45.9273 88.868 46.2143C90.2122 46.5035 91.356 47.2998 92.088 48.4581L94.8223 52.808V29.3975H28.3805V52.808L31.1094 48.4618C31.8468 47.3014 32.9906 46.5035 34.3347 46.2143C35.6681 45.9327 37.0337 46.1806 38.1668 46.9266C39.5928 47.8637 40.4427 49.4488 40.4427 51.1656C40.4427 51.7027 40.3463 52.2618 40.1588 52.8294C38.9647 56.1811 37.7759 59.5333 36.5999 62.885H86.6013C85.4248 59.5333 84.2381 56.1827 83.0493 52.8471C82.8549 52.2634 82.7585 51.7027 82.7585 51.1677C82.7585 49.4504 83.6116 47.8653 85.036 46.9282V46.9266ZM80.6792 58.291C79.7635 59.31 78.4531 59.8953 77.0827 59.8953C74.998 59.8953 73.1559 58.5641 72.5026 56.5843L70.8158 51.4692H52.387L50.7002 56.5827C50.0469 58.5641 48.2048 59.8953 46.1184 59.8953C44.7476 59.8953 43.4377 59.31 42.522 58.291C41.6101 57.2773 41.1725 55.9208 41.3187 54.5692L43.4591 34.2753C43.5609 33.2188 44.4819 32.385 45.5583 32.385H51.4911C52.0871 32.385 52.6724 32.6458 53.0601 33.0849L54.8503 35.0427H68.3508L70.1517 33.0742C70.5282 32.6474 71.114 32.385 71.7117 32.385H77.645C78.723 32.385 79.644 33.2204 79.7436 34.2861L81.8819 54.5692C82.0286 55.9208 81.5895 57.2751 80.6792 58.2894V58.291Z" fill="#373737"/>
<mask id="mask0_40_160" style="mask-type:luminance" maskUnits="userSpaceOnUse" x="12" y="40" width="37" height="58">
<path d="M12.338 40.0298H48.6664V97.4698H12.338V40.0298Z" fill="white"/>
</mask>
<g mask="url(#mask0_40_160)">
<path d="M37.4532 68.5642C40.0536 71.6503 39.3773 75.6484 39.215 76.4157C39.1256 76.8372 38.7561 77.1247 38.3438 77.1247C38.2833 77.1247 38.2206 77.1194 38.1585 77.1049C37.6744 77.0032 37.3676 76.5303 37.4677 76.0484C37.5994 75.4181 38.1548 72.1644 36.0915 69.7172C35.4794 69.0033 34.7152 68.4378 33.7551 67.9934C33.7476 67.9896 33.7422 67.9827 33.7353 67.9789C33.7047 67.9645 33.6833 67.9377 33.6549 67.92C33.5709 67.8649 33.4959 67.806 33.4354 67.7288C33.4247 67.7165 33.4086 67.7112 33.3979 67.6967C33.3802 67.6721 33.3802 67.6416 33.3658 67.6148C33.3229 67.5382 33.2908 67.4595 33.2715 67.3738C33.2608 67.3294 33.2533 67.2865 33.2501 67.2399C33.2447 67.1505 33.2571 67.0632 33.2785 66.9738C33.2854 66.9438 33.2785 66.9117 33.2876 66.8811L34.4973 63.4759C35.8093 59.7258 37.1389 55.9773 38.467 52.2454C38.5901 51.8737 38.6528 51.5133 38.6528 51.1652C38.6528 50.0514 38.1012 49.0254 37.1817 48.4187C36.4465 47.9367 35.5704 47.7777 34.7029 47.9581C33.8317 48.1456 33.0894 48.6628 32.6129 49.4109L28.2378 56.3751L24.8304 61.8121C24.6184 62.1478 24.2023 62.3085 23.8274 62.196C23.444 62.0852 23.1816 61.7355 23.1816 61.3392V40.1436L13.775 59.2331C11.6581 63.531 11.8027 68.5878 14.1552 72.7588L19.6243 82.4562C19.9831 83.0934 20.1737 83.8158 20.1737 84.5441V97.3881H38.3422V85.7918C38.3422 84.2464 39.1631 82.8343 40.4858 82.106C43.4005 80.4963 48.2141 76.5496 48.5355 68.0791H36.9247C37.0945 68.2451 37.291 68.3843 37.4463 68.5642H37.4532Z" fill="#373737"/>
</g>
<path d="M80.1078 54.7588L77.9679 34.4627C77.9518 34.2951 77.8073 34.1698 77.645 34.1698H71.7117C71.6244 34.1698 71.528 34.2073 71.4798 34.2662L69.4042 36.5351C69.2344 36.7204 68.9951 36.8259 68.7455 36.8259H54.4573C54.2056 36.8259 53.9684 36.7204 53.7986 36.5367L51.7321 34.2769C51.6732 34.2073 51.5768 34.1682 51.4911 34.1682H45.5583C45.3939 34.1682 45.2493 34.2951 45.2349 34.452L43.0934 54.7566C43.0002 55.6188 43.2696 56.4488 43.8501 57.0968C44.4263 57.7394 45.2547 58.1089 46.1184 58.1089C47.432 58.1089 48.5941 57.2697 49.0064 56.0204L50.8967 50.2948C51.0161 49.9286 51.3589 49.6806 51.7444 49.6806H71.4637C71.8493 49.6806 72.1904 49.9286 72.3114 50.2948L74.2017 56.0226C74.6141 57.2697 75.774 58.1089 77.0881 58.1089C77.9497 58.1089 78.7781 57.7394 79.3565 57.0968C79.9364 56.4504 80.2058 55.6209 80.1131 54.7588H80.1078ZM55.2659 43.5373H52.2049V46.5961C52.2049 47.0888 51.8049 47.4888 51.3123 47.4888C50.8196 47.4888 50.4201 47.0888 50.4201 46.5961V43.5373H47.3608C46.8681 43.5373 46.4681 43.1373 46.4681 42.6447C46.4681 42.152 46.8681 41.752 47.3608 41.752H50.4201V38.6911C50.4201 38.1984 50.8196 37.7989 51.3123 37.7989C51.8049 37.7989 52.2049 38.1984 52.2049 38.6911V41.752H55.2659C55.7585 41.752 56.1586 42.152 56.1586 42.6447C56.1586 43.1373 55.7585 43.5373 55.2659 43.5373ZM68.7418 43.4533C68.2507 43.4533 67.8405 43.0533 67.8405 42.5606C67.8405 42.0679 68.2314 41.6684 68.7241 41.6684H68.7418C69.2344 41.6684 69.6344 42.0679 69.6344 42.5606C69.6344 43.0533 69.2344 43.4533 68.7418 43.4533ZM72.6113 47.3228C72.1208 47.3228 71.71 46.9228 71.71 46.4301C71.71 45.938 72.101 45.538 72.5936 45.538H72.6113C73.104 45.538 73.504 45.938 73.504 46.4301C73.504 46.9228 73.104 47.3228 72.6113 47.3228ZM72.6113 39.5837C72.1208 39.5837 71.71 39.1837 71.71 38.6911C71.71 38.1984 72.101 37.7989 72.5936 37.7989H72.6113C73.104 37.7989 73.504 38.1984 73.504 38.6911C73.504 39.1837 73.104 39.5837 72.6113 39.5837ZM76.4808 43.4533C75.9903 43.4533 75.5796 43.0533 75.5796 42.5606C75.5796 42.0679 75.9705 41.6684 76.4632 41.6684H76.4808C76.9735 41.6684 77.3735 42.0679 77.3735 42.5606C77.3735 43.0533 76.9735 43.4533 76.4808 43.4533Z" fill="#373737"/>
<path d="M98.2296 58.2359V27.0718C98.2296 26.4737 97.7439 25.9885 97.1463 25.9885H26.0563C25.4587 25.9885 24.973 26.4737 24.973 27.0718V58.2359L26.5956 55.6478V28.5032C26.5956 28.0106 26.9951 27.6106 27.4877 27.6106H95.7165C96.2092 27.6106 96.6092 28.0106 96.6092 28.5032V55.6478L98.2312 58.2359H98.2296Z" fill="#373737"/>
<path d="M35.3951 66.2925H87.8063L87.2295 64.6699H35.9735L35.3951 66.2925Z" fill="#373737"/>
<path d="M100.015 40.1531V61.3413C100.015 61.7391 99.7522 62.0894 99.3688 62.1981C99.2885 62.2232 99.2044 62.2339 99.1225 62.2339C98.8204 62.2339 98.5334 62.0803 98.3653 61.8162L94.9579 56.3793C94.9579 56.3793 94.9579 56.3756 94.9579 56.3739L90.5817 49.4114C90.1068 48.6654 89.3645 48.1492 88.4933 47.9618C87.6333 47.7797 86.7476 47.9403 86.0161 48.4223C85.0934 49.029 84.5434 50.0556 84.5434 51.1694C84.5434 51.5175 84.6061 51.8779 84.7362 52.2672C86.0605 55.9798 87.3869 59.7278 88.6984 63.4763L89.9086 66.8853C89.9193 66.9153 89.9108 66.9496 89.9193 66.9817C89.9407 67.069 89.9515 67.1547 89.9461 67.2419C89.9429 67.2885 89.9354 67.3314 89.9247 67.378C89.9054 67.4615 89.8749 67.5402 89.832 67.6152C89.8176 67.642 89.8176 67.6741 89.7999 67.6993C89.7908 67.7132 89.7731 67.7185 89.7624 67.7314C89.7035 67.8064 89.6302 67.8631 89.5482 67.9167C89.5177 67.9365 89.4947 67.9649 89.4609 67.9809C89.4534 67.9847 89.4518 67.99 89.4449 67.9938C88.4826 68.4415 87.7168 69.0054 87.1063 69.7229C85.0377 72.1755 85.5984 75.4207 85.7322 76.0467C85.8356 76.5308 85.5266 77.0036 85.0452 77.107C84.9825 77.1198 84.9199 77.1268 84.8578 77.1268C84.447 77.1268 84.0759 76.8392 83.9865 76.4199C83.8221 75.6509 83.1351 71.6614 85.7446 68.57C85.8999 68.3863 86.098 68.2455 86.2694 68.0795H74.6554C74.9783 76.5554 79.7957 80.4929 82.7158 82.0978C84.0347 82.8582 84.8471 84.2698 84.8471 85.7944V97.3923H103.017V84.552C103.017 83.82 103.204 83.1153 103.574 82.4582L109.043 72.763C111.39 68.5861 111.529 63.5261 109.412 59.2314L100.011 40.1547L100.015 40.1531Z" fill="#373737"/>
</svg>
