<svg width="290" height="36" viewBox="0 0 290 36" fill="none" xmlns="http://www.w3.org/2000/svg">
<path d="M86.3889 0H91.0429L93.6607 3.1766L96.5695 6.92953L97.7329 8.37327V8.9496H98.3147L101.805 13.5699L104.132 16.4574L107.332 20.4995L109.659 23.3869L110.531 24.5415V25.1179H111.113L111.404 0H116.931V35.5112H112.277L110.24 33.202V32.6257H109.659L108.495 30.8928L105.877 27.7162L103.841 25.1179L102.969 23.9633V23.3869L102.096 23.0978L100.351 20.7886L98.3147 18.1883L96.2786 15.59L95.406 14.4354V13.8591L94.5333 13.5699L92.4972 10.9716V10.3933H91.9155V35.5112H86.3889V0Z" fill="#0C143A"/>
<path d="M45.0849 0.289133H73.2995L77.9535 1.73287L79.117 2.3092V2.88747L80.5714 3.46573L81.1531 3.75294V4.3312L82.0257 4.62033L83.771 7.5078L84.0618 10.1061L83.1892 12.7045L81.1531 14.7245L78.8261 15.8791L77.9535 22.5195L76.4991 28.0053L74.7539 31.7583L72.7178 34.0694L70.9726 35.224L69.2273 35.8003H66.3186L63.4099 34.3566L61.9555 32.3365H56.1381L55.2654 33.7803L53.5202 35.224L51.4841 35.8003H48.8662L45.9575 34.3566L43.9214 32.3365L41.8853 28.2945L40.4309 24.2524L39.8492 21.6541L39.5583 19.0557V15.8791L37.5222 15.3028L34.9044 12.7045L34.3226 11.8371L34.0317 8.94961L35.1952 5.77493L36.9405 3.75294L38.9766 2.3092L42.467 0.86547L45.0849 0.289133ZM48.8662 3.46573L44.5032 6.06407L43.6305 7.5078L42.7579 12.4153V18.4775L43.6305 23.3869L44.794 26.8507L45.9575 28.0053L50.3206 28.8708L55.2654 29.1599H62.5373L68.3547 28.8708L73.0087 28.0053L74.1722 25.407L75.0448 21.6541L75.3356 16.4574L74.7539 9.52787L73.5904 6.6404L69.8091 3.75294L69.2273 3.46573H48.8662ZM75.6265 3.75294L76.2083 5.4858L77.0809 7.5078L77.6626 9.52787L77.9535 11.8371L78.2444 12.1262L80.5714 11.8371L81.444 10.6825V8.37327L80.2805 6.35127L77.0809 4.04207L75.6265 3.75294ZM41.0127 4.04207L38.6857 5.77493L36.9405 7.795L36.6496 8.37327V10.9716L37.2313 11.8371L39.2674 12.4153L39.8492 11.5479L40.1401 8.94961L41.0127 6.06407L41.8853 4.62033V4.04207H41.0127ZM46.5393 31.1819L47.9936 32.6257L49.7389 33.4911L51.4841 33.202L52.3567 32.9129V32.0474L50.9023 31.4711L46.5393 31.1819ZM70.6817 31.1819L66.0277 31.7583L66.3186 32.9129L68.0638 33.4911L70.3908 32.6257L71.5543 31.7583V31.1819H70.6817Z" fill="#0056FF"/>
<path d="M168.706 0H183.831L187.031 0.578264L190.231 1.73287L191.394 2.3092V2.88747L192.848 3.46573L195.175 5.77493L196.921 8.6624L198.084 11.8371L198.666 15.3028V20.2103L198.084 23.9633L195.757 28.5836L194.012 30.8928L190.812 33.202L188.195 34.3566L185.577 35.224L182.959 35.5112H168.706V0ZM174.233 4.62033V30.6037L174.524 30.8928H181.504L185.286 30.3145L188.195 28.8708L191.103 25.9853L192.558 22.8087L193.139 20.7886V14.4354L191.976 10.9716L190.231 8.37327L187.613 6.06407L184.413 4.90754L182.959 4.62033H174.233ZM204.774 0H228.917V4.62033L210.592 4.90754V14.7245L226.59 15.0137V19.6321H210.301L210.592 22.8087V30.0273L211.173 30.6037H229.498V35.5112H204.774V0Z" fill="#0C143A"/>
<path d="M13.9619 0.289133H19.4885L22.1063 0.86547L24.7242 2.022L27.342 3.75294L29.3781 6.06407L30.2508 7.795L27.342 9.817L25.8877 10.3933L24.1424 7.795L21.2337 5.77493L18.0341 5.19667H15.4162L12.5075 5.77493L9.88967 7.5078L7.85356 9.52787L6.10833 13.2808L5.52658 16.4574V19.6321L6.3992 23.0978L7.85356 25.9853L10.1805 28.5836L12.5075 30.0273L14.2528 30.6037H19.4885L22.3972 29.4491L25.015 27.1399H25.5968L26.1785 25.6961L26.7603 25.407L30.2508 27.1399L30.8325 28.0053L29.0873 30.6037L26.4694 32.9129L22.9789 34.6457L18.325 35.8003H14.8345L10.4714 34.6457L7.85356 33.202V32.6257L6.3992 32.0474L3.78134 29.1599V28.5836H3.1996L1.16349 24.5415L0.290873 21.9432L0 19.9212V14.1482L1.16349 10.6825L3.49047 6.6404L6.98094 3.1766L10.4714 1.1546L13.9619 0.289133Z" fill="#0C143A"/>
<path d="M125.366 0H149.218V4.62033L130.893 4.90754V15.3028L146.309 15.59V19.9212L130.893 20.2103V35.5112H125.366V0Z" fill="#0C143A"/>
<path d="M235.607 0H241.134V30.6037H260.331L260.622 30.8928V35.224L260.331 35.5112H235.607V0Z" fill="#0C143A"/>
<path d="M265.276 0H270.802L271.093 30.6037H290V35.5112H265.276V0Z" fill="#0C143A"/>
<path d="M49.1576 6.64041H58.4655L70.3913 6.92954L71.8456 8.37327L72.7182 10.9716L73.0091 14.1482V17.612L72.4274 22.8087L71.8456 24.5415L68.3552 25.9853L66.0282 26.5616L61.3742 26.8507H57.302L53.2298 26.5616L48.8667 25.6961L46.8306 24.8287L45.958 22.8087L45.3762 18.4775V13.2808L45.958 10.1061L46.8306 8.08414L48.2849 6.92954L49.1576 6.64041ZM51.1937 9.817L49.4484 10.1061L48.5758 13.8591V19.0557L49.4484 23.0978L50.3211 23.6741L53.2298 24.2524H63.9921L67.7734 23.6741L68.9369 22.8087L69.5186 20.4995L69.8095 15.3028L69.5186 11.2607L68.9369 10.1061L51.1937 9.817Z" fill="#0056FF"/>
<path d="M154.745 0H160.271V35.5112H154.745V0Z" fill="#0C143A"/>
<path d="M58.4652 19.6321H60.5013L60.7922 21.0758L60.2104 21.9432L59.9196 23.6741L59.0469 23.3869V21.6541L58.1743 21.3649V19.9212L58.4652 19.6321Z" fill="#0056FF"/>
<path d="M51.7751 16.1683L52.9386 16.7464V17.9008L52.066 18.4771L51.1934 17.6118L51.4842 16.4574L51.7751 16.1683Z" fill="#0056FF"/>
<path d="M66.0278 16.4574H67.1913L67.4822 17.612L67.1913 18.1883H65.7369L65.446 17.0337L66.0278 16.4574Z" fill="#0056FF"/>
</svg>
