<svg width="190" height="24" viewBox="0 0 190 24" fill="none" xmlns="http://www.w3.org/2000/svg">
<path d="M56.5999 0H59.649L61.3641 2.09375L63.2699 4.56737L64.0322 5.51896V5.89883H64.4133L66.7002 8.94417L68.2247 10.8473L70.321 13.5115L71.8456 15.4147L72.4173 16.1757V16.5556H72.7984L72.989 0H76.6099V23.406H73.5607L72.2267 21.884V21.5041H71.8456L71.0833 20.362L69.3682 18.2682L68.0342 16.5556L67.4624 15.7946V15.4147L66.8907 15.2241L65.7473 13.7021L64.4133 11.9882L63.0793 10.2756L62.5076 9.51461V9.13474L61.9359 8.94417L60.6019 7.23156V6.85042H60.2207V23.406H56.5999V0Z" fill="#373737"/>
<path d="M29.5386 0.190571H48.0241L51.0732 1.14216L51.8355 1.52203V1.90318L52.7884 2.28432L53.1695 2.47362V2.85476L53.7412 3.04533L54.8846 4.94851L55.0752 6.66112L54.5035 8.37372L53.1695 9.70518L51.6449 10.4662L51.0732 14.843L50.1203 18.4588L48.9769 20.9324L47.6429 22.4557L46.4995 23.2167L45.3561 23.5966H43.4503L41.5446 22.645L40.5918 21.3135H36.7803L36.2086 22.2651L35.0652 23.2167L33.7312 23.5966H32.016L30.1103 22.645L28.7763 21.3135L27.4423 18.6493L26.4895 15.9852L26.1083 14.2725L25.9177 12.5599V10.4662L24.5837 10.0863L22.8686 8.37372L22.4874 7.802L22.2969 5.89883L23.0592 3.80635L24.2026 2.47362L25.5366 1.52203L27.8235 0.570444L29.5386 0.190571ZM32.016 2.28432L29.1575 3.99692L28.5857 4.94851L28.014 8.18315V12.1788L28.5857 15.4147L29.348 17.6978L30.1103 18.4588L32.9689 19.0292L36.2086 19.2198H40.9729L44.7843 19.0292L47.8335 18.4588L48.5958 16.7462L49.1675 14.2725L49.3581 10.8473L48.9769 6.27997L48.2146 4.3768L45.7372 2.47362L45.3561 2.28432H32.016ZM49.5486 2.47362L49.9298 3.61578L50.5015 4.94851L50.8826 6.27997L51.0732 7.802L51.2638 7.99258L52.7884 7.802L53.3601 7.04099V5.51896L52.5978 4.18622L50.5015 2.66419L49.5486 2.47362ZM26.8706 2.66419L25.346 3.80635L24.2026 5.13781L24.012 5.51896V7.23156L24.3932 7.802L25.7272 8.18315L26.1083 7.61143L26.2989 5.89883L26.8706 3.99692L27.4423 3.04533V2.66419H26.8706ZM30.4915 20.5525L31.4443 21.5041L32.5877 22.0746L33.7312 21.884L34.3029 21.6934V21.123L33.35 20.7431L30.4915 20.5525ZM46.3089 20.5525L43.2598 20.9324L43.4503 21.6934L44.5938 22.0746L46.1183 21.5041L46.8806 20.9324V20.5525H46.3089Z" fill="#9EBA9C"/>
<path d="M110.531 0H120.441L122.538 0.381143L124.634 1.14216L125.396 1.52203V1.90318L126.349 2.28432L127.874 3.80635L129.017 5.70953L129.779 7.80201L130.16 10.0863V13.321L129.779 15.7946L128.255 18.8399L127.111 20.362L125.015 21.884L123.3 22.645L121.585 23.2167L119.87 23.406H110.531V0ZM114.152 3.04534V20.1714L114.343 20.362H118.917L121.394 19.9808L123.3 19.0292L125.206 17.1273L126.158 15.0336L126.54 13.7021V9.51461L125.777 7.23156L124.634 5.51896L122.919 3.99692L120.822 3.23464L119.87 3.04534H114.152ZM134.162 0H149.98V3.04534L137.974 3.23464V9.70518L148.455 9.89575V12.9398H137.783L137.974 15.0336V19.7915L138.355 20.1714H150.361V23.406H134.162V0Z" fill="#373737"/>
<path d="M9.14744 0.190571H12.7683L14.4835 0.570444L16.1986 1.33273L17.9137 2.47362L19.2477 3.99692L19.8195 5.13781L17.9137 6.47054L16.9609 6.85042L15.8175 5.13781L13.9117 3.80635L11.8154 3.42521H10.1003L8.19458 3.80635L6.47944 4.94851L5.14544 6.27997L4.00201 8.75359L3.62086 10.8473V12.9398L4.19258 15.2241L5.14544 17.1273L6.67001 18.8399L8.19458 19.7915L9.33801 20.1714H12.7683L14.674 19.4104L16.3892 17.8883H16.7703L17.1515 16.9367L17.5326 16.7462L19.8195 17.8883L20.2006 18.4588L19.0572 20.1714L17.342 21.6934L15.0552 22.8356L12.006 23.5966H9.71916L6.86058 22.8356L5.14544 21.884V21.5041L4.19258 21.123L2.47743 19.2198V18.8399H2.09629L0.762287 16.1757L0.190572 14.4631L0 13.1304V9.32531L0.762287 7.04099L2.28686 4.3768L4.57372 2.09375L6.86058 0.761015L9.14744 0.190571Z" fill="#373737"/>
<path d="M82.1365 0H97.7634V3.04534L85.7573 3.23464V10.0863L95.8576 10.2756V13.1304L85.7573 13.321V23.406H82.1365V0Z" fill="#373737"/>
<path d="M154.363 0H157.984V20.1714H170.562L170.752 20.362V23.2167L170.562 23.406H154.363V0Z" fill="#373737"/>
<path d="M173.802 0H177.422L177.613 20.1714H190V23.406H173.802V0Z" fill="#373737"/>
<path d="M32.2067 4.3768H38.305L46.1184 4.56737L47.0713 5.51896L47.643 7.23156L47.8336 9.32531V11.6084L47.4524 15.0336L47.0713 16.1757L44.7844 17.1273L43.2598 17.5072L40.2107 17.6978H37.5427L34.8747 17.5072L32.0161 16.9367L30.6821 16.365L30.1104 15.0336L29.7292 12.1788V8.7536L30.1104 6.66112L30.6821 5.32839L31.635 4.56737L32.2067 4.3768ZM33.5407 6.47055L32.3973 6.66112L31.8255 9.13474V12.56L32.3973 15.2241L32.969 15.604L34.8747 15.9852H41.9258L44.4033 15.604L45.1656 15.0336L45.5467 13.5115L45.7373 10.0863L45.5467 7.42214L45.1656 6.66112L33.5407 6.47055Z" fill="#9EBA9C"/>
<path d="M101.384 0H105.005V23.406H101.384V0Z" fill="#373737"/>
<path d="M38.3048 12.9398H39.6388L39.8294 13.8914L39.4483 14.4631L39.2577 15.604L38.686 15.4147V14.2726L38.1143 14.082V13.1304L38.3048 12.9398Z" fill="#9EBA9C"/>
<path d="M33.9217 10.6568L34.684 11.0379V11.7989L34.1122 12.1788L33.5405 11.6084L33.7311 10.8473L33.9217 10.6568Z" fill="#9EBA9C"/>
<path d="M43.2598 10.8473H44.0221L44.2127 11.6084L44.0221 11.9882H43.0692L42.8787 11.2272L43.2598 10.8473Z" fill="#9EBA9C"/>
</svg>
