<svg width="50" height="38" viewBox="0 0 50 38" fill="none" xmlns="http://www.w3.org/2000/svg">
<path d="M17.3421 19.0083C16.8877 18.4391 16.9009 17.7926 17.378 17.2574C17.9378 16.6288 18.0452 16.6179 18.6656 17.1253C19.3119 17.6545 19.4504 18.1973 19.0852 18.7768C18.7527 19.3049 17.6912 19.4458 17.3421 19.0083Z" fill="#373737"/>
<path d="M31.5649 17.684C31.7095 17.3934 31.9345 17.1091 32.0646 17.0526C32.5278 16.8519 33.0144 17.0304 33.3745 17.5339C33.7009 17.9904 33.7124 18.1035 33.4837 18.5997C33.2661 19.0723 33.1184 19.1548 32.4907 19.1548C31.896 19.1548 31.7099 19.0635 31.5278 18.6836C31.3467 18.3056 31.3538 18.1088 31.5649 17.684Z" fill="#373737"/>
<path d="M24.3741 22.534C23.7538 21.8116 23.6822 21.2866 24.1332 20.7683C24.5296 20.313 26.1665 20.2803 26.7642 20.7156C27.3041 21.1092 27.2879 21.6464 26.7125 22.431C26.4229 22.8263 26.2466 23.32 26.2466 23.7374C26.2466 25.3109 25.0914 25.5084 24.9796 23.9539C24.9411 23.4198 24.7505 22.9722 24.3741 22.534Z" fill="#373737"/>
<path fill-rule="evenodd" clip-rule="evenodd" d="M6.08317 8.64312C5.88989 9.49177 5.73742 10.3974 5.64705 11.2746C5.49941 12.7092 5.32439 12.8421 4.18038 12.3877C2.70053 11.8002 2.34746 10.0567 3.31882 8.13647C3.64268 7.4962 4.01304 6.97334 4.54535 6.44812L2.84594 4.02246C0.913727 5.82575 -0.110288 8.03314 0.00943289 10.4014C0.0966021 12.1323 0.591574 13.2465 1.85755 14.5631C2.66438 15.4018 4.02226 16.2757 5.02673 16.6014C5.26256 16.6776 5.35007 17.113 5.45042 18.7012C5.56664 20.5431 5.90957 23.1559 6.2221 24.5797C6.58226 26.2202 8.67095 31.8521 9.3977 33.1416C10.1062 34.3988 11.853 36.1146 13.0845 36.7625C15.3374 37.9477 17.5517 38.0274 19.513 36.9937C20.5692 36.4371 21.9227 35.078 22.0832 34.4132C22.1682 34.0606 22.2144 33.9926 23.8338 33.9795L21.156 30.1573C19.1082 30.1186 17.4385 30.0467 16.7456 29.942C13.6595 29.475 12.1486 29.1008 11.6448 28.6781C11.0999 28.2203 10.1883 25.9079 9.84266 24.1057C9.72407 23.4883 9.60413 22.8713 9.4825 22.2546C9.39803 21.8284 9.22775 20.1717 9.10443 18.5733C8.91801 16.1551 8.92391 15.2992 9.16093 13.0362L6.08317 8.64312ZM13.2048 33.2973C13.8558 34.0179 15.4029 34.7516 16.2695 34.7509C16.9943 34.7502 18.2359 34.1627 18.2359 33.8204C18.2359 33.7316 17.5443 33.5502 16.699 33.4174C15.8536 33.2843 14.7596 33.0945 14.268 32.9951C12.825 32.7031 12.7 32.7386 13.2048 33.2973Z" fill="#373737"/>
<path fill-rule="evenodd" clip-rule="evenodd" d="M17.3226 24.6857C16.7048 24.5579 16.2474 24.4266 16.0293 24.3053C15.6705 24.1056 15.6392 24.0411 15.2315 21.701L11.2599 16.0321C11.2555 16.3219 11.2536 16.6199 11.2539 16.9264C11.2597 21.6668 11.883 25.2185 12.8764 26.1693C13.296 26.5713 15.3272 27.1711 17.6305 27.5734C18.1682 27.6672 18.9787 27.8112 19.5896 27.9216L17.3226 24.6857Z" fill="#373737"/>
<path fill-rule="evenodd" clip-rule="evenodd" d="M7.61682 4.43546C7.61682 4.49168 7.35227 5.08023 7.02927 5.74327C6.67475 6.47019 6.34229 7.50545 6.08318 8.64313L9.16095 13.0362C9.16707 12.9777 9.17335 12.9183 9.17978 12.8579C9.73456 7.65475 9.87376 7.25137 11.529 6.04721C12.7899 5.13048 14.6613 4.01979 15.162 3.89189C15.3668 3.83953 19.8938 3.78718 25.2223 3.77523C33.3132 3.75731 34.9944 3.79983 35.4231 4.03244C36.4786 4.60518 39.3174 6.93056 39.5627 7.42319C40.9773 10.2683 41.4743 19.0656 40.4975 23.9767C40.1499 25.7266 39.1788 28.6374 38.818 29.0126C38.5464 29.2948 36.9496 29.5822 33.6058 29.9504C31.5949 30.1718 25.5176 30.2398 21.156 30.1574L23.8339 33.9796C24.1898 33.9767 24.6216 33.9765 25.1466 33.9765H28.105L28.3584 34.6061C28.6574 35.3489 29.8511 36.5176 30.8555 37.0506C34.2741 38.8644 39.0396 36.8258 41.2111 32.6202C41.8419 31.3984 43.2444 27.1971 43.5633 25.5741C44.1671 22.5003 44.3063 21.5828 44.5164 19.2845L44.7526 16.7019L45.9216 16.1274C47.5042 15.3498 48.8962 14.01 49.5064 12.6773C49.9209 11.7714 50.0003 11.3336 50 9.9471C49.9997 8.47415 49.9338 8.15616 49.3918 7.01173C47.5616 3.14522 42.7156 0.314909 37.425 0.0218639C36.6563 -0.0206522 30.2849 0.000781574 23.2661 0.0692993C14.1717 0.158197 10.2637 0.261852 9.66597 0.429808C6.82451 1.22857 4.50175 2.47714 2.84595 4.02247L4.54536 6.44812C4.98933 6.01006 5.54597 5.57035 6.28225 5.0595C7.28132 4.36624 7.61682 4.20918 7.61682 4.43546ZM34.2112 33.3528C33.1098 33.5179 32.2083 33.7193 32.2083 33.8008C32.2083 34.1999 33.2368 34.7505 33.9568 34.7368C35.0802 34.7151 36.9108 33.8644 37.1337 33.2604C37.2503 32.9448 36.8442 32.9578 34.2112 33.3528ZM41.896 4.22007C41.896 4.26434 42.1744 4.85289 42.5143 5.52788C43.3988 7.2837 44.3036 10.4576 44.3137 11.8407C44.3178 12.4208 44.3654 12.4703 44.9236 12.47C45.9267 12.4696 46.771 11.8965 47.0639 11.017C47.5123 9.67303 46.9984 8.06164 45.653 6.58903C44.5901 5.42634 41.896 3.7271 41.896 4.22007Z" fill="#373737"/>
<path fill-rule="evenodd" clip-rule="evenodd" d="M17.3226 24.6857C18.4079 24.9102 19.9881 25.124 21.6348 25.2543C25.3743 25.5502 31.9445 25.0312 34.0294 24.2751C34.6572 24.0477 34.791 23.6633 35.2072 20.8984C35.684 17.7314 35.3772 11.0251 34.7464 10.822C34.6312 10.7848 30.321 10.7173 25.1679 10.6716C16.2854 10.5929 15.7891 10.607 15.6185 10.938C14.8982 12.3378 14.6448 18.3242 15.1762 21.3829C15.1954 21.4934 15.2138 21.5994 15.2315 21.701L11.2599 16.0321C11.3385 10.7974 12.1986 8.24304 14.2305 7.07709C14.4897 6.92846 17.8997 6.8617 25.4487 6.85748L36.2942 6.85151L36.9452 7.44603C38.4436 8.81463 39.1015 11.5866 39.1015 16.5329C39.1015 21.1566 38.4105 25.1777 37.4797 25.9718C36.7273 26.6138 35.0522 27.1858 32.2137 27.7709C30.5636 28.111 29.5517 28.1739 25.649 28.1788C23.1113 28.182 20.531 28.0927 19.9151 27.9806C19.8161 27.9626 19.7065 27.9427 19.5896 27.9216L17.3226 24.6857Z" fill="#373737"/>
</svg>
